<?xml version="1.0" encoding="UTF-8"?>
<svg xmlns="http://www.w3.org/2000/svg" xmlns:xlink="http://www.w3.org/1999/xlink" width="756" height="432" viewBox="0 0 756 432">
<rect x="-75.6" y="-43.2" width="907.2" height="518.4" fill="rgb(100%, 100%, 100%)" fill-opacity="1"/>
<path fill="none" stroke-width="1.066978" stroke-linecap="butt" stroke-linejoin="round" stroke="rgb(0%, 0%, 0%)" stroke-opacity="0.2" stroke-miterlimit="10" d="M 368.617188 197.027344 L 368.617188 140.320312 "/>
<path fill="none" stroke-width="1.066978" stroke-linecap="butt" stroke-linejoin="round" stroke="rgb(0%, 0%, 0%)" stroke-opacity="0.2" stroke-miterlimit="10" d="M 191.488281 185.257812 L 191.488281 159.40625 "/>
<path fill="none" stroke-width="1.066978" stroke-linecap="butt" stroke-linejoin="round" stroke="rgb(0%, 0%, 0%)" stroke-opacity="0.2" stroke-miterlimit="10" d="M 446.464844 416.621094 L 446.464844 131.933594 "/>
<path fill="none" stroke-width="1.066978" stroke-linecap="butt" stroke-linejoin="round" stroke="rgb(0%, 0%, 0%)" stroke-opacity="0.2" stroke-miterlimit="10" d="M 390.695312 279.667969 L 390.695312 137.941406 "/>
<path fill="none" stroke-width="1.066978" stroke-linecap="butt" stroke-linejoin="round" stroke="rgb(0%, 0%, 0%)" stroke-opacity="0.2" stroke-miterlimit="10" d="M 308.539062 173.710938 L 308.539062 146.792969 "/>
<path fill="none" stroke-width="1.066978" stroke-linecap="butt" stroke-linejoin="round" stroke="rgb(0%, 0%, 0%)" stroke-opacity="0.2" stroke-miterlimit="10" d="M 396.078125 255 L 396.078125 137.359375 "/>
<path fill="none" stroke-width="1.066978" stroke-linecap="butt" stroke-linejoin="round" stroke="rgb(0%, 0%, 0%)" stroke-opacity="0.2" stroke-miterlimit="10" d="M 389.488281 175.417969 L 389.488281 138.070312 "/>
<path fill="none" stroke-width="1.066978" stroke-linecap="butt" stroke-linejoin="round" stroke="rgb(0%, 0%, 0%)" stroke-opacity="0.2" stroke-miterlimit="10" d="M 276.535156 342.570312 L 276.535156 150.242188 "/>
<path fill="none" stroke-width="1.066978" stroke-linecap="butt" stroke-linejoin="round" stroke="rgb(0%, 0%, 0%)" stroke-opacity="0.2" stroke-miterlimit="10" d="M 477.199219 224.71875 L 477.199219 128.621094 "/>
<path fill="none" stroke-width="1.066978" stroke-linecap="butt" stroke-linejoin="round" stroke="rgb(0%, 0%, 0%)" stroke-opacity="0.2" stroke-miterlimit="10" d="M 575.421875 80.871094 L 575.421875 118.035156 "/>
<path fill="none" stroke-width="1.066978" stroke-linecap="butt" stroke-linejoin="round" stroke="rgb(0%, 0%, 0%)" stroke-opacity="0.2" stroke-miterlimit="10" d="M 294.808594 362.941406 L 294.808594 148.273438 "/>
<path fill="none" stroke-width="1.066978" stroke-linecap="butt" stroke-linejoin="round" stroke="rgb(0%, 0%, 0%)" stroke-opacity="0.2" stroke-miterlimit="10" d="M 250.773438 218.34375 L 250.773438 153.019531 "/>
<path fill="none" stroke-width="1.066978" stroke-linecap="butt" stroke-linejoin="round" stroke="rgb(0%, 0%, 0%)" stroke-opacity="0.2" stroke-miterlimit="10" d="M 396.578125 277.054688 L 396.578125 137.308594 "/>
<path fill="none" stroke-width="1.066978" stroke-linecap="butt" stroke-linejoin="round" stroke="rgb(0%, 0%, 0%)" stroke-opacity="0.2" stroke-miterlimit="10" d="M 303.363281 269.136719 L 303.363281 147.351562 "/>
<path fill="none" stroke-width="1.066978" stroke-linecap="butt" stroke-linejoin="round" stroke="rgb(0%, 0%, 0%)" stroke-opacity="0.2" stroke-miterlimit="10" d="M 586.25 178.039062 L 586.25 116.871094 "/>
<path fill="none" stroke-width="1.066978" stroke-linecap="butt" stroke-linejoin="round" stroke="rgb(0%, 0%, 0%)" stroke-opacity="0.2" stroke-miterlimit="10" d="M 292.230469 136.398438 L 292.230469 148.550781 "/>
<path fill="none" stroke-width="1.066978" stroke-linecap="butt" stroke-linejoin="round" stroke="rgb(0%, 0%, 0%)" stroke-opacity="0.2" stroke-miterlimit="10" d="M 464.363281 173.378906 L 464.363281 130.003906 "/>
<path fill="none" stroke-width="1.066978" stroke-linecap="butt" stroke-linejoin="round" stroke="rgb(0%, 0%, 0%)" stroke-opacity="0.2" stroke-miterlimit="10" d="M 561.324219 259.527344 L 561.324219 119.554688 "/>
<path fill="none" stroke-width="1.066978" stroke-linecap="butt" stroke-linejoin="round" stroke="rgb(0%, 0%, 0%)" stroke-opacity="0.2" stroke-miterlimit="10" d="M 721.105469 99.121094 L 721.105469 102.339844 "/>
<path fill="none" stroke-width="1.066978" stroke-linecap="butt" stroke-linejoin="round" stroke="rgb(0%, 0%, 0%)" stroke-opacity="0.2" stroke-miterlimit="10" d="M 419.148438 265.285156 L 419.148438 134.875 "/>
<path fill="none" stroke-width="1.066978" stroke-linecap="butt" stroke-linejoin="round" stroke="rgb(0%, 0%, 0%)" stroke-opacity="0.2" stroke-miterlimit="10" d="M 608.148438 210.234375 L 608.148438 114.507812 "/>
<path fill="none" stroke-width="1.066978" stroke-linecap="butt" stroke-linejoin="round" stroke="rgb(0%, 0%, 0%)" stroke-opacity="0.2" stroke-miterlimit="10" d="M 443.539062 285.308594 L 443.539062 132.246094 "/>
<path fill="none" stroke-width="1.066978" stroke-linecap="butt" stroke-linejoin="round" stroke="rgb(0%, 0%, 0%)" stroke-opacity="0.2" stroke-miterlimit="10" d="M 384.226562 267.570312 L 384.226562 138.636719 "/>
<path fill="none" stroke-width="1.066978" stroke-linecap="butt" stroke-linejoin="round" stroke="rgb(0%, 0%, 0%)" stroke-opacity="0.2" stroke-miterlimit="10" d="M 419.347656 246.875 L 419.347656 134.855469 "/>
<path fill="none" stroke-width="1.066978" stroke-linecap="butt" stroke-linejoin="round" stroke="rgb(0%, 0%, 0%)" stroke-opacity="0.2" stroke-miterlimit="10" d="M 563.71875 219.300781 L 563.71875 119.296875 "/>
<path fill="none" stroke-width="1.066978" stroke-linecap="butt" stroke-linejoin="round" stroke="rgb(0%, 0%, 0%)" stroke-opacity="0.2" stroke-miterlimit="10" d="M 402.03125 237.476562 L 402.03125 136.71875 "/>
<path fill="none" stroke-width="1.066978" stroke-linecap="butt" stroke-linejoin="round" stroke="rgb(0%, 0%, 0%)" stroke-opacity="0.2" stroke-miterlimit="10" d="M 354.160156 171.90625 L 354.160156 141.878906 "/>
<path fill="none" stroke-width="1.066978" stroke-linecap="butt" stroke-linejoin="round" stroke="rgb(0%, 0%, 0%)" stroke-opacity="0.2" stroke-miterlimit="10" d="M 260.058594 249.984375 L 260.058594 152.019531 "/>
<path fill="none" stroke-width="1.066978" stroke-linecap="butt" stroke-linejoin="round" stroke="rgb(0%, 0%, 0%)" stroke-opacity="0.2" stroke-miterlimit="10" d="M 122.027344 368.4375 L 122.027344 166.890625 "/>
<path fill="none" stroke-width="1.066978" stroke-linecap="butt" stroke-linejoin="round" stroke="rgb(0%, 0%, 0%)" stroke-opacity="0.2" stroke-miterlimit="10" d="M 537.171875 58.113281 L 537.171875 122.15625 "/>
<path fill="none" stroke-width="1.066978" stroke-linecap="butt" stroke-linejoin="round" stroke="rgb(0%, 0%, 0%)" stroke-opacity="0.2" stroke-miterlimit="10" d="M 284.140625 233.902344 L 284.140625 149.421875 "/>
<path fill="none" stroke-width="1.066978" stroke-linecap="butt" stroke-linejoin="round" stroke="rgb(0%, 0%, 0%)" stroke-opacity="0.2" stroke-miterlimit="10" d="M 432.710938 299.230469 L 432.710938 133.414062 "/>
<path fill="none" stroke-width="1.066978" stroke-linecap="butt" stroke-linejoin="round" stroke="rgb(0%, 0%, 0%)" stroke-opacity="0.2" stroke-miterlimit="10" d="M 479.308594 173.382812 L 479.308594 128.394531 "/>
<path fill="none" stroke-width="1.066978" stroke-linecap="butt" stroke-linejoin="round" stroke="rgb(0%, 0%, 0%)" stroke-opacity="0.2" stroke-miterlimit="10" d="M 505.515625 174.871094 L 505.515625 125.570312 "/>
<path fill="none" stroke-width="1.066978" stroke-linecap="butt" stroke-linejoin="round" stroke="rgb(0%, 0%, 0%)" stroke-opacity="0.2" stroke-miterlimit="10" d="M 248.464844 342.550781 L 248.464844 153.265625 "/>
<path fill="none" stroke-width="1.066978" stroke-linecap="butt" stroke-linejoin="round" stroke="rgb(0%, 0%, 0%)" stroke-opacity="0.2" stroke-miterlimit="10" d="M 648.515625 19.839844 L 648.515625 110.160156 "/>
<path fill="none" stroke-width="1.066978" stroke-linecap="butt" stroke-linejoin="round" stroke="rgb(0%, 0%, 0%)" stroke-opacity="0.2" stroke-miterlimit="10" d="M 650.015625 127.785156 L 650.015625 110 "/>
<path fill="none" stroke-width="1.066978" stroke-linecap="butt" stroke-linejoin="round" stroke="rgb(0%, 0%, 0%)" stroke-opacity="0.2" stroke-miterlimit="10" d="M 574.867188 137.242188 L 574.867188 118.097656 "/>
<path fill="none" stroke-width="1.066978" stroke-linecap="butt" stroke-linejoin="round" stroke="rgb(0%, 0%, 0%)" stroke-opacity="0.2" stroke-miterlimit="10" d="M 472.679688 237.191406 L 472.679688 129.105469 "/>
<path fill="none" stroke-width="1.066978" stroke-linecap="butt" stroke-linejoin="round" stroke="rgb(0%, 0%, 0%)" stroke-opacity="0.2" stroke-miterlimit="10" d="M 387.019531 209.105469 L 387.019531 138.335938 "/>
<path fill="none" stroke-width="1.066978" stroke-linecap="butt" stroke-linejoin="round" stroke="rgb(0%, 0%, 0%)" stroke-opacity="0.2" stroke-miterlimit="10" d="M 473.878906 179.4375 L 473.878906 128.976562 "/>
<path fill="none" stroke-width="1.066978" stroke-linecap="butt" stroke-linejoin="round" stroke="rgb(0%, 0%, 0%)" stroke-opacity="0.2" stroke-miterlimit="10" d="M 504.453125 144.292969 L 504.453125 125.683594 "/>
<path fill="none" stroke-width="1.066978" stroke-linecap="butt" stroke-linejoin="round" stroke="rgb(0%, 0%, 0%)" stroke-opacity="0.2" stroke-miterlimit="10" d="M 548.875 239.597656 L 548.875 120.898438 "/>
<path fill="none" stroke-width="1.066978" stroke-linecap="butt" stroke-linejoin="round" stroke="rgb(0%, 0%, 0%)" stroke-opacity="0.2" stroke-miterlimit="10" d="M 325.1875 234.378906 L 325.1875 145 "/>
<path fill="none" stroke-width="1.066978" stroke-linecap="butt" stroke-linejoin="round" stroke="rgb(0%, 0%, 0%)" stroke-opacity="0.2" stroke-miterlimit="10" d="M 334.796875 265.835938 L 334.796875 143.964844 "/>
<path fill="none" stroke-width="1.066978" stroke-linecap="butt" stroke-linejoin="round" stroke="rgb(0%, 0%, 0%)" stroke-opacity="0.2" stroke-miterlimit="10" d="M 353.839844 269.5625 L 353.839844 141.914062 "/>
<path fill="none" stroke-width="1.066978" stroke-linecap="butt" stroke-linejoin="round" stroke="rgb(0%, 0%, 0%)" stroke-opacity="0.2" stroke-miterlimit="10" d="M 235.980469 228.132812 L 235.980469 154.613281 "/>
<path fill="none" stroke-width="1.066978" stroke-linecap="butt" stroke-linejoin="round" stroke="rgb(0%, 0%, 0%)" stroke-opacity="0.2" stroke-miterlimit="10" d="M 460.917969 130.363281 L 460.917969 130.375 "/>
<path fill="none" stroke-width="1.066978" stroke-linecap="butt" stroke-linejoin="round" stroke="rgb(0%, 0%, 0%)" stroke-opacity="0.2" stroke-miterlimit="10" d="M 468.433594 213.214844 L 468.433594 129.566406 "/>
<path fill="none" stroke-width="1.066978" stroke-linecap="butt" stroke-linejoin="round" stroke="rgb(0%, 0%, 0%)" stroke-opacity="0.2" stroke-miterlimit="10" d="M 614.574219 197.195312 L 614.574219 113.816406 "/>
<path fill="none" stroke-width="1.066978" stroke-linecap="butt" stroke-linejoin="round" stroke="rgb(0%, 0%, 0%)" stroke-opacity="0.2" stroke-miterlimit="10" d="M 306.316406 233.222656 L 306.316406 147.035156 "/>
<path fill="none" stroke-width="1.066978" stroke-linecap="butt" stroke-linejoin="round" stroke="rgb(0%, 0%, 0%)" stroke-opacity="0.2" stroke-miterlimit="10" d="M 232.761719 318.839844 L 232.761719 154.960938 "/>
<path fill="none" stroke-width="1.066978" stroke-linecap="butt" stroke-linejoin="round" stroke="rgb(0%, 0%, 0%)" stroke-opacity="0.2" stroke-miterlimit="10" d="M 541.425781 207.683594 L 541.425781 121.699219 "/>
<path fill="none" stroke-width="1.066978" stroke-linecap="butt" stroke-linejoin="round" stroke="rgb(0%, 0%, 0%)" stroke-opacity="0.2" stroke-miterlimit="10" d="M 466.945312 273.960938 L 466.945312 129.726562 "/>
<path fill="none" stroke-width="1.066978" stroke-linecap="butt" stroke-linejoin="round" stroke="rgb(0%, 0%, 0%)" stroke-opacity="0.2" stroke-miterlimit="10" d="M 296.84375 299.5625 L 296.84375 148.054688 "/>
<path fill="none" stroke-width="1.066978" stroke-linecap="butt" stroke-linejoin="round" stroke="rgb(0%, 0%, 0%)" stroke-opacity="0.2" stroke-miterlimit="10" d="M 450.742188 238.179688 L 450.742188 131.472656 "/>
<path fill="none" stroke-width="1.066978" stroke-linecap="butt" stroke-linejoin="round" stroke="rgb(0%, 0%, 0%)" stroke-opacity="0.2" stroke-miterlimit="10" d="M 528.195312 107.289062 L 528.195312 123.125 "/>
<path fill="none" stroke-width="1.066978" stroke-linecap="butt" stroke-linejoin="round" stroke="rgb(0%, 0%, 0%)" stroke-opacity="0.2" stroke-miterlimit="10" d="M 306.160156 160.3125 L 306.160156 147.050781 "/>
<path fill="none" stroke-width="1.066978" stroke-linecap="butt" stroke-linejoin="round" stroke="rgb(0%, 0%, 0%)" stroke-opacity="0.2" stroke-miterlimit="10" d="M 589.402344 163.332031 L 589.402344 116.53125 "/>
<path fill="none" stroke-width="1.066978" stroke-linecap="butt" stroke-linejoin="round" stroke="rgb(0%, 0%, 0%)" stroke-opacity="0.2" stroke-miterlimit="10" d="M 428.140625 238.90625 L 428.140625 133.90625 "/>
<path fill="none" stroke-width="1.066978" stroke-linecap="butt" stroke-linejoin="round" stroke="rgb(0%, 0%, 0%)" stroke-opacity="0.2" stroke-miterlimit="10" d="M 40.207031 380.949219 L 40.207031 175.707031 "/>
<path fill="none" stroke-width="1.066978" stroke-linecap="butt" stroke-linejoin="round" stroke="rgb(0%, 0%, 0%)" stroke-opacity="0.2" stroke-miterlimit="10" d="M 73.582031 368.019531 L 73.582031 172.113281 "/>
<path fill="none" stroke-width="1.066978" stroke-linecap="butt" stroke-linejoin="round" stroke="rgb(0%, 0%, 0%)" stroke-opacity="0.2" stroke-miterlimit="10" d="M 438.097656 175.792969 L 438.097656 132.832031 "/>
<path fill="none" stroke-width="1.066978" stroke-linecap="butt" stroke-linejoin="round" stroke="rgb(0%, 0%, 0%)" stroke-opacity="0.2" stroke-miterlimit="10" d="M 291.429688 195.308594 L 291.429688 148.636719 "/>
<path fill="none" stroke-width="1.066978" stroke-linecap="butt" stroke-linejoin="round" stroke="rgb(0%, 0%, 0%)" stroke-opacity="0.2" stroke-miterlimit="10" d="M 333.488281 273.285156 L 333.488281 144.105469 "/>
<path fill="none" stroke-width="1.066978" stroke-linecap="butt" stroke-linejoin="round" stroke="rgb(0%, 0%, 0%)" stroke-opacity="0.2" stroke-miterlimit="10" d="M 408.90625 149.765625 L 408.90625 135.980469 "/>
<path fill="none" stroke-width="1.066978" stroke-linecap="butt" stroke-linejoin="round" stroke="rgb(0%, 0%, 0%)" stroke-opacity="0.2" stroke-miterlimit="10" d="M 373.109375 234.570312 L 373.109375 139.835938 "/>
<path fill="none" stroke-width="1.066978" stroke-linecap="butt" stroke-linejoin="round" stroke="rgb(0%, 0%, 0%)" stroke-opacity="0.2" stroke-miterlimit="10" d="M 281.054688 340.144531 L 281.054688 149.753906 "/>
<path fill="none" stroke-width="1.066978" stroke-linecap="butt" stroke-linejoin="round" stroke="rgb(0%, 0%, 0%)" stroke-opacity="0.2" stroke-miterlimit="10" d="M 240.878906 280.007812 L 240.878906 154.085938 "/>
<path fill="none" stroke-width="1.066978" stroke-linecap="butt" stroke-linejoin="round" stroke="rgb(0%, 0%, 0%)" stroke-opacity="0.2" stroke-miterlimit="10" d="M 343.269531 226.777344 L 343.269531 143.050781 "/>
<path fill="none" stroke-width="1.066978" stroke-linecap="butt" stroke-linejoin="round" stroke="rgb(0%, 0%, 0%)" stroke-opacity="0.2" stroke-miterlimit="10" d="M 642.464844 202.652344 L 642.464844 110.8125 "/>
<path fill="none" stroke-width="1.066978" stroke-linecap="butt" stroke-linejoin="round" stroke="rgb(0%, 0%, 0%)" stroke-opacity="0.2" stroke-miterlimit="10" d="M 582.144531 212.136719 L 582.144531 117.3125 "/>
<path fill="none" stroke-width="1.066978" stroke-linecap="butt" stroke-linejoin="round" stroke="rgb(0%, 0%, 0%)" stroke-opacity="0.2" stroke-miterlimit="10" d="M 381.601562 160.199219 L 381.601562 138.921875 "/>
<path fill="none" stroke-width="1.066978" stroke-linecap="butt" stroke-linejoin="round" stroke="rgb(0%, 0%, 0%)" stroke-opacity="0.2" stroke-miterlimit="10" d="M 341.980469 167.527344 L 341.980469 143.191406 "/>
<path fill="none" stroke-width="1.066978" stroke-linecap="butt" stroke-linejoin="round" stroke="rgb(0%, 0%, 0%)" stroke-opacity="0.2" stroke-miterlimit="10" d="M 113.027344 194.730469 L 113.027344 167.863281 "/>
<path fill="none" stroke-width="1.066978" stroke-linecap="butt" stroke-linejoin="round" stroke="rgb(0%, 0%, 0%)" stroke-opacity="0.2" stroke-miterlimit="10" d="M 354.246094 304.355469 L 354.246094 141.867188 "/>
<path fill="none" stroke-width="1.066978" stroke-linecap="butt" stroke-linejoin="round" stroke="rgb(0%, 0%, 0%)" stroke-opacity="0.2" stroke-miterlimit="10" d="M 467.800781 203.539062 L 467.800781 129.632812 "/>
<path fill="none" stroke-width="1.066978" stroke-linecap="butt" stroke-linejoin="round" stroke="rgb(0%, 0%, 0%)" stroke-opacity="0.2" stroke-miterlimit="10" d="M 197.167969 232.710938 L 197.167969 158.792969 "/>
<path fill="none" stroke-width="1.066978" stroke-linecap="butt" stroke-linejoin="round" stroke="rgb(0%, 0%, 0%)" stroke-opacity="0.2" stroke-miterlimit="10" d="M 493.011719 145.414062 L 493.011719 126.917969 "/>
<path fill="none" stroke-width="1.066978" stroke-linecap="butt" stroke-linejoin="round" stroke="rgb(0%, 0%, 0%)" stroke-opacity="0.2" stroke-miterlimit="10" d="M 501.652344 201.175781 L 501.652344 125.984375 "/>
<path fill="none" stroke-width="1.066978" stroke-linecap="butt" stroke-linejoin="round" stroke="rgb(0%, 0%, 0%)" stroke-opacity="0.2" stroke-miterlimit="10" d="M 206.019531 183.519531 L 206.019531 157.839844 "/>
<path fill="none" stroke-width="1.066978" stroke-linecap="butt" stroke-linejoin="round" stroke="rgb(0%, 0%, 0%)" stroke-opacity="0.2" stroke-miterlimit="10" d="M 534.003906 28.105469 L 534.003906 122.5 "/>
<path fill="none" stroke-width="1.066978" stroke-linecap="butt" stroke-linejoin="round" stroke="rgb(0%, 0%, 0%)" stroke-opacity="0.2" stroke-miterlimit="10" d="M 324.160156 248.84375 L 324.160156 145.109375 "/>
<path fill="none" stroke-width="1.066978" stroke-linecap="butt" stroke-linejoin="round" stroke="rgb(0%, 0%, 0%)" stroke-opacity="0.2" stroke-miterlimit="10" d="M 301.222656 322.089844 L 301.222656 147.582031 "/>
<path fill="none" stroke-width="1.066978" stroke-linecap="butt" stroke-linejoin="round" stroke="rgb(0%, 0%, 0%)" stroke-opacity="0.2" stroke-miterlimit="10" d="M 502.511719 190.4375 L 502.511719 125.894531 "/>
<path fill="none" stroke-width="1.066978" stroke-linecap="butt" stroke-linejoin="round" stroke="rgb(0%, 0%, 0%)" stroke-opacity="0.2" stroke-miterlimit="10" d="M 427.613281 314.984375 L 427.613281 133.964844 "/>
<path fill="none" stroke-width="1.066978" stroke-linecap="butt" stroke-linejoin="round" stroke="rgb(0%, 0%, 0%)" stroke-opacity="0.2" stroke-miterlimit="10" d="M 315.078125 200.851562 L 315.078125 146.089844 "/>
<path fill="none" stroke-width="1.066978" stroke-linecap="butt" stroke-linejoin="round" stroke="rgb(0%, 0%, 0%)" stroke-opacity="0.2" stroke-miterlimit="10" d="M 193.519531 347.640625 L 193.519531 159.1875 "/>
<path fill="none" stroke-width="1.066978" stroke-linecap="butt" stroke-linejoin="round" stroke="rgb(0%, 0%, 0%)" stroke-opacity="0.2" stroke-miterlimit="10" d="M 510.824219 135.238281 L 510.824219 124.996094 "/>
<path fill="none" stroke-width="1.066978" stroke-linecap="butt" stroke-linejoin="round" stroke="rgb(0%, 0%, 0%)" stroke-opacity="0.2" stroke-miterlimit="10" d="M 206.996094 299.121094 L 206.996094 157.734375 "/>
<path fill="none" stroke-width="1.066978" stroke-linecap="butt" stroke-linejoin="round" stroke="rgb(0%, 0%, 0%)" stroke-opacity="0.2" stroke-miterlimit="10" d="M 87.496094 316.007812 L 87.496094 170.613281 "/>
<path fill="none" stroke-width="1.066978" stroke-linecap="butt" stroke-linejoin="round" stroke="rgb(0%, 0%, 0%)" stroke-opacity="0.2" stroke-miterlimit="10" d="M 516.308594 243.628906 L 516.308594 124.40625 "/>
<path fill="none" stroke-width="1.066978" stroke-linecap="butt" stroke-linejoin="round" stroke="rgb(0%, 0%, 0%)" stroke-opacity="0.2" stroke-miterlimit="10" d="M 501.089844 169.503906 L 501.089844 126.046875 "/>
<path fill="none" stroke-width="1.066978" stroke-linecap="butt" stroke-linejoin="round" stroke="rgb(0%, 0%, 0%)" stroke-opacity="0.2" stroke-miterlimit="10" d="M 456.804688 221.546875 L 456.804688 130.816406 "/>
<path fill="none" stroke-width="1.066978" stroke-linecap="butt" stroke-linejoin="round" stroke="rgb(0%, 0%, 0%)" stroke-opacity="0.2" stroke-miterlimit="10" d="M 23.234375 345.707031 L 23.234375 177.535156 "/>
<path fill="none" stroke-width="1.066978" stroke-linecap="butt" stroke-linejoin="round" stroke="rgb(0%, 0%, 0%)" stroke-opacity="0.2" stroke-miterlimit="10" d="M 330.410156 246.34375 L 330.410156 144.4375 "/>
<path fill="none" stroke-width="1.066978" stroke-linecap="butt" stroke-linejoin="round" stroke="rgb(0%, 0%, 0%)" stroke-opacity="0.2" stroke-miterlimit="10" d="M 384.050781 161.378906 L 384.050781 138.65625 "/>
<path fill="none" stroke-width="1.066978" stroke-linecap="butt" stroke-linejoin="round" stroke="rgb(0%, 0%, 0%)" stroke-opacity="0.2" stroke-miterlimit="10" d="M 550.144531 245.363281 L 550.144531 120.761719 "/>
<path fill="none" stroke-width="1.066978" stroke-linecap="butt" stroke-linejoin="round" stroke="rgb(0%, 0%, 0%)" stroke-opacity="0.2" stroke-miterlimit="10" d="M 416.890625 220.167969 L 416.890625 135.117188 "/>
<path fill="none" stroke-width="1.066978" stroke-linecap="butt" stroke-linejoin="round" stroke="rgb(0%, 0%, 0%)" stroke-opacity="0.2" stroke-miterlimit="10" d="M 180.988281 292.792969 L 180.988281 160.539062 "/>
<path fill-rule="nonzero" fill="rgb(18.431373%, 30.980392%, 30.980392%)" fill-opacity="0.901961" stroke-width="0.708661" stroke-linecap="round" stroke-linejoin="round" stroke="rgb(18.431373%, 30.980392%, 30.980392%)" stroke-opacity="0.901961" stroke-miterlimit="10" d="M 374.308594 197.027344 C 374.308594 200.167969 371.761719 202.714844 368.617188 202.714844 C 365.476562 202.714844 362.929688 200.167969 362.929688 197.027344 C 362.929688 193.882812 365.476562 191.335938 368.617188 191.335938 C 371.761719 191.335938 374.308594 193.882812 374.308594 197.027344 "/>
<path fill-rule="nonzero" fill="rgb(18.431373%, 30.980392%, 30.980392%)" fill-opacity="0.901961" stroke-width="0.708661" stroke-linecap="round" stroke-linejoin="round" stroke="rgb(18.431373%, 30.980392%, 30.980392%)" stroke-opacity="0.901961" stroke-miterlimit="10" d="M 197.179688 185.257812 C 197.179688 188.398438 194.632812 190.945312 191.488281 190.945312 C 188.347656 190.945312 185.800781 188.398438 185.800781 185.257812 C 185.800781 182.113281 188.347656 179.566406 191.488281 179.566406 C 194.632812 179.566406 197.179688 182.113281 197.179688 185.257812 "/>
<path fill-rule="nonzero" fill="rgb(18.431373%, 30.980392%, 30.980392%)" fill-opacity="0.901961" stroke-width="0.708661" stroke-linecap="round" stroke-linejoin="round" stroke="rgb(18.431373%, 30.980392%, 30.980392%)" stroke-opacity="0.901961" stroke-miterlimit="10" d="M 452.15625 416.621094 C 452.15625 419.761719 449.609375 422.308594 446.464844 422.308594 C 443.324219 422.308594 440.777344 419.761719 440.777344 416.621094 C 440.777344 413.480469 443.324219 410.933594 446.464844 410.933594 C 449.609375 410.933594 452.15625 413.480469 452.15625 416.621094 "/>
<path fill-rule="nonzero" fill="rgb(18.431373%, 30.980392%, 30.980392%)" fill-opacity="0.901961" stroke-width="0.708661" stroke-linecap="round" stroke-linejoin="round" stroke="rgb(18.431373%, 30.980392%, 30.980392%)" stroke-opacity="0.901961" stroke-miterlimit="10" d="M 396.382812 279.667969 C 396.382812 282.8125 393.835938 285.359375 390.695312 285.359375 C 387.550781 285.359375 385.003906 282.8125 385.003906 279.667969 C 385.003906 276.527344 387.550781 273.980469 390.695312 273.980469 C 393.835938 273.980469 396.382812 276.527344 396.382812 279.667969 "/>
<path fill-rule="nonzero" fill="rgb(18.431373%, 30.980392%, 30.980392%)" fill-opacity="0.901961" stroke-width="0.708661" stroke-linecap="round" stroke-linejoin="round" stroke="rgb(18.431373%, 30.980392%, 30.980392%)" stroke-opacity="0.901961" stroke-miterlimit="10" d="M 314.226562 173.710938 C 314.226562 176.851562 311.679688 179.398438 308.539062 179.398438 C 305.394531 179.398438 302.847656 176.851562 302.847656 173.710938 C 302.847656 170.570312 305.394531 168.023438 308.539062 168.023438 C 311.679688 168.023438 314.226562 170.570312 314.226562 173.710938 "/>
<path fill-rule="nonzero" fill="rgb(18.431373%, 30.980392%, 30.980392%)" fill-opacity="0.901961" stroke-width="0.708661" stroke-linecap="round" stroke-linejoin="round" stroke="rgb(18.431373%, 30.980392%, 30.980392%)" stroke-opacity="0.901961" stroke-miterlimit="10" d="M 401.765625 255 C 401.765625 258.140625 399.21875 260.6875 396.078125 260.6875 C 392.933594 260.6875 390.386719 258.140625 390.386719 255 C 390.386719 251.855469 392.933594 249.308594 396.078125 249.308594 C 399.21875 249.308594 401.765625 251.855469 401.765625 255 "/>
<path fill-rule="nonzero" fill="rgb(18.431373%, 30.980392%, 30.980392%)" fill-opacity="0.901961" stroke-width="0.708661" stroke-linecap="round" stroke-linejoin="round" stroke="rgb(18.431373%, 30.980392%, 30.980392%)" stroke-opacity="0.901961" stroke-miterlimit="10" d="M 395.175781 175.417969 C 395.175781 178.558594 392.628906 181.105469 389.488281 181.105469 C 386.347656 181.105469 383.800781 178.558594 383.800781 175.417969 C 383.800781 172.273438 386.347656 169.726562 389.488281 169.726562 C 392.628906 169.726562 395.175781 172.273438 395.175781 175.417969 "/>
<path fill-rule="nonzero" fill="rgb(18.431373%, 30.980392%, 30.980392%)" fill-opacity="0.901961" stroke-width="0.708661" stroke-linecap="round" stroke-linejoin="round" stroke="rgb(18.431373%, 30.980392%, 30.980392%)" stroke-opacity="0.901961" stroke-miterlimit="10" d="M 282.226562 342.570312 C 282.226562 345.710938 279.679688 348.257812 276.535156 348.257812 C 273.394531 348.257812 270.847656 345.710938 270.847656 342.570312 C 270.847656 339.425781 273.394531 336.878906 276.535156 336.878906 C 279.679688 336.878906 282.226562 339.425781 282.226562 342.570312 "/>
<path fill-rule="nonzero" fill="rgb(18.431373%, 30.980392%, 30.980392%)" fill-opacity="0.901961" stroke-width="0.708661" stroke-linecap="round" stroke-linejoin="round" stroke="rgb(18.431373%, 30.980392%, 30.980392%)" stroke-opacity="0.901961" stroke-miterlimit="10" d="M 482.886719 224.71875 C 482.886719 227.859375 480.339844 230.40625 477.199219 230.40625 C 474.058594 230.40625 471.507812 227.859375 471.507812 224.71875 C 471.507812 221.578125 474.058594 219.03125 477.199219 219.03125 C 480.339844 219.03125 482.886719 221.578125 482.886719 224.71875 "/>
<path fill-rule="nonzero" fill="rgb(18.431373%, 30.980392%, 30.980392%)" fill-opacity="0.901961" stroke-width="0.708661" stroke-linecap="round" stroke-linejoin="round" stroke="rgb(18.431373%, 30.980392%, 30.980392%)" stroke-opacity="0.901961" stroke-miterlimit="10" d="M 581.113281 80.871094 C 581.113281 84.011719 578.566406 86.558594 575.421875 86.558594 C 572.28125 86.558594 569.734375 84.011719 569.734375 80.871094 C 569.734375 77.726562 572.28125 75.179688 575.421875 75.179688 C 578.566406 75.179688 581.113281 77.726562 581.113281 80.871094 "/>
<path fill-rule="nonzero" fill="rgb(18.431373%, 30.980392%, 30.980392%)" fill-opacity="0.901961" stroke-width="0.708661" stroke-linecap="round" stroke-linejoin="round" stroke="rgb(18.431373%, 30.980392%, 30.980392%)" stroke-opacity="0.901961" stroke-miterlimit="10" d="M 300.5 362.941406 C 300.5 366.082031 297.953125 368.632812 294.808594 368.632812 C 291.667969 368.632812 289.121094 366.082031 289.121094 362.941406 C 289.121094 359.800781 291.667969 357.253906 294.808594 357.253906 C 297.953125 357.253906 300.5 359.800781 300.5 362.941406 "/>
<path fill-rule="nonzero" fill="rgb(18.431373%, 30.980392%, 30.980392%)" fill-opacity="0.901961" stroke-width="0.708661" stroke-linecap="round" stroke-linejoin="round" stroke="rgb(18.431373%, 30.980392%, 30.980392%)" stroke-opacity="0.901961" stroke-miterlimit="10" d="M 256.464844 218.34375 C 256.464844 221.484375 253.917969 224.03125 250.773438 224.03125 C 247.632812 224.03125 245.085938 221.484375 245.085938 218.34375 C 245.085938 215.199219 247.632812 212.652344 250.773438 212.652344 C 253.917969 212.652344 256.464844 215.199219 256.464844 218.34375 "/>
<path fill-rule="nonzero" fill="rgb(18.431373%, 30.980392%, 30.980392%)" fill-opacity="0.901961" stroke-width="0.708661" stroke-linecap="round" stroke-linejoin="round" stroke="rgb(18.431373%, 30.980392%, 30.980392%)" stroke-opacity="0.901961" stroke-miterlimit="10" d="M 402.265625 277.054688 C 402.265625 280.195312 399.71875 282.742188 396.578125 282.742188 C 393.433594 282.742188 390.886719 280.195312 390.886719 277.054688 C 390.886719 273.914062 393.433594 271.363281 396.578125 271.363281 C 399.71875 271.363281 402.265625 273.914062 402.265625 277.054688 "/>
<path fill-rule="nonzero" fill="rgb(18.431373%, 30.980392%, 30.980392%)" fill-opacity="0.901961" stroke-width="0.708661" stroke-linecap="round" stroke-linejoin="round" stroke="rgb(18.431373%, 30.980392%, 30.980392%)" stroke-opacity="0.901961" stroke-miterlimit="10" d="M 309.050781 269.136719 C 309.050781 272.277344 306.503906 274.824219 303.363281 274.824219 C 300.21875 274.824219 297.671875 272.277344 297.671875 269.136719 C 297.671875 265.992188 300.21875 263.445312 303.363281 263.445312 C 306.503906 263.445312 309.050781 265.992188 309.050781 269.136719 "/>
<path fill-rule="nonzero" fill="rgb(18.431373%, 30.980392%, 30.980392%)" fill-opacity="0.901961" stroke-width="0.708661" stroke-linecap="round" stroke-linejoin="round" stroke="rgb(18.431373%, 30.980392%, 30.980392%)" stroke-opacity="0.901961" stroke-miterlimit="10" d="M 591.9375 178.039062 C 591.9375 181.183594 589.390625 183.730469 586.25 183.730469 C 583.105469 183.730469 580.558594 181.183594 580.558594 178.039062 C 580.558594 174.898438 583.105469 172.351562 586.25 172.351562 C 589.390625 172.351562 591.9375 174.898438 591.9375 178.039062 "/>
<path fill-rule="nonzero" fill="rgb(18.431373%, 30.980392%, 30.980392%)" fill-opacity="0.901961" stroke-width="0.708661" stroke-linecap="round" stroke-linejoin="round" stroke="rgb(18.431373%, 30.980392%, 30.980392%)" stroke-opacity="0.901961" stroke-miterlimit="10" d="M 297.921875 136.398438 C 297.921875 139.539062 295.375 142.085938 292.230469 142.085938 C 289.089844 142.085938 286.542969 139.539062 286.542969 136.398438 C 286.542969 133.253906 289.089844 130.707031 292.230469 130.707031 C 295.375 130.707031 297.921875 133.253906 297.921875 136.398438 "/>
<path fill-rule="nonzero" fill="rgb(18.431373%, 30.980392%, 30.980392%)" fill-opacity="0.901961" stroke-width="0.708661" stroke-linecap="round" stroke-linejoin="round" stroke="rgb(18.431373%, 30.980392%, 30.980392%)" stroke-opacity="0.901961" stroke-miterlimit="10" d="M 470.050781 173.378906 C 470.050781 176.519531 467.503906 179.066406 464.363281 179.066406 C 461.21875 179.066406 458.671875 176.519531 458.671875 173.378906 C 458.671875 170.234375 461.21875 167.6875 464.363281 167.6875 C 467.503906 167.6875 470.050781 170.234375 470.050781 173.378906 "/>
<path fill-rule="nonzero" fill="rgb(18.431373%, 30.980392%, 30.980392%)" fill-opacity="0.901961" stroke-width="0.708661" stroke-linecap="round" stroke-linejoin="round" stroke="rgb(18.431373%, 30.980392%, 30.980392%)" stroke-opacity="0.901961" stroke-miterlimit="10" d="M 567.011719 259.527344 C 567.011719 262.667969 564.464844 265.214844 561.324219 265.214844 C 558.179688 265.214844 555.632812 262.667969 555.632812 259.527344 C 555.632812 256.382812 558.179688 253.835938 561.324219 253.835938 C 564.464844 253.835938 567.011719 256.382812 567.011719 259.527344 "/>
<path fill-rule="nonzero" fill="rgb(18.431373%, 30.980392%, 30.980392%)" fill-opacity="0.901961" stroke-width="0.708661" stroke-linecap="round" stroke-linejoin="round" stroke="rgb(18.431373%, 30.980392%, 30.980392%)" stroke-opacity="0.901961" stroke-miterlimit="10" d="M 726.796875 99.121094 C 726.796875 102.261719 724.25 104.808594 721.105469 104.808594 C 717.964844 104.808594 715.417969 102.261719 715.417969 99.121094 C 715.417969 95.976562 717.964844 93.429688 721.105469 93.429688 C 724.25 93.429688 726.796875 95.976562 726.796875 99.121094 "/>
<path fill-rule="nonzero" fill="rgb(18.431373%, 30.980392%, 30.980392%)" fill-opacity="0.901961" stroke-width="0.708661" stroke-linecap="round" stroke-linejoin="round" stroke="rgb(18.431373%, 30.980392%, 30.980392%)" stroke-opacity="0.901961" stroke-miterlimit="10" d="M 424.839844 265.285156 C 424.839844 268.429688 422.292969 270.976562 419.148438 270.976562 C 416.007812 270.976562 413.460938 268.429688 413.460938 265.285156 C 413.460938 262.144531 416.007812 259.597656 419.148438 259.597656 C 422.292969 259.597656 424.839844 262.144531 424.839844 265.285156 "/>
<path fill-rule="nonzero" fill="rgb(18.431373%, 30.980392%, 30.980392%)" fill-opacity="0.901961" stroke-width="0.708661" stroke-linecap="round" stroke-linejoin="round" stroke="rgb(18.431373%, 30.980392%, 30.980392%)" stroke-opacity="0.901961" stroke-miterlimit="10" d="M 613.835938 210.234375 C 613.835938 213.375 611.289062 215.925781 608.148438 215.925781 C 605.007812 215.925781 602.460938 213.375 602.460938 210.234375 C 602.460938 207.09375 605.007812 204.546875 608.148438 204.546875 C 611.289062 204.546875 613.835938 207.09375 613.835938 210.234375 "/>
<path fill-rule="nonzero" fill="rgb(18.431373%, 30.980392%, 30.980392%)" fill-opacity="0.901961" stroke-width="0.708661" stroke-linecap="round" stroke-linejoin="round" stroke="rgb(18.431373%, 30.980392%, 30.980392%)" stroke-opacity="0.901961" stroke-miterlimit="10" d="M 449.230469 285.308594 C 449.230469 288.449219 446.683594 290.996094 443.539062 290.996094 C 440.398438 290.996094 437.851562 288.449219 437.851562 285.308594 C 437.851562 282.167969 440.398438 279.621094 443.539062 279.621094 C 446.683594 279.621094 449.230469 282.167969 449.230469 285.308594 "/>
<path fill-rule="nonzero" fill="rgb(18.431373%, 30.980392%, 30.980392%)" fill-opacity="0.901961" stroke-width="0.708661" stroke-linecap="round" stroke-linejoin="round" stroke="rgb(18.431373%, 30.980392%, 30.980392%)" stroke-opacity="0.901961" stroke-miterlimit="10" d="M 389.917969 267.570312 C 389.917969 270.710938 387.371094 273.257812 384.226562 273.257812 C 381.085938 273.257812 378.539062 270.710938 378.539062 267.570312 C 378.539062 264.429688 381.085938 261.878906 384.226562 261.878906 C 387.371094 261.878906 389.917969 264.429688 389.917969 267.570312 "/>
<path fill-rule="nonzero" fill="rgb(18.431373%, 30.980392%, 30.980392%)" fill-opacity="0.901961" stroke-width="0.708661" stroke-linecap="round" stroke-linejoin="round" stroke="rgb(18.431373%, 30.980392%, 30.980392%)" stroke-opacity="0.901961" stroke-miterlimit="10" d="M 425.039062 246.875 C 425.039062 250.019531 422.492188 252.566406 419.347656 252.566406 C 416.207031 252.566406 413.660156 250.019531 413.660156 246.875 C 413.660156 243.734375 416.207031 241.1875 419.347656 241.1875 C 422.492188 241.1875 425.039062 243.734375 425.039062 246.875 "/>
<path fill-rule="nonzero" fill="rgb(18.431373%, 30.980392%, 30.980392%)" fill-opacity="0.901961" stroke-width="0.708661" stroke-linecap="round" stroke-linejoin="round" stroke="rgb(18.431373%, 30.980392%, 30.980392%)" stroke-opacity="0.901961" stroke-miterlimit="10" d="M 569.410156 219.300781 C 569.410156 222.441406 566.863281 224.988281 563.71875 224.988281 C 560.578125 224.988281 558.03125 222.441406 558.03125 219.300781 C 558.03125 216.160156 560.578125 213.609375 563.71875 213.609375 C 566.863281 213.609375 569.410156 216.160156 569.410156 219.300781 "/>
<path fill-rule="nonzero" fill="rgb(18.431373%, 30.980392%, 30.980392%)" fill-opacity="0.901961" stroke-width="0.708661" stroke-linecap="round" stroke-linejoin="round" stroke="rgb(18.431373%, 30.980392%, 30.980392%)" stroke-opacity="0.901961" stroke-miterlimit="10" d="M 407.71875 237.476562 C 407.71875 240.621094 405.171875 243.167969 402.03125 243.167969 C 398.886719 243.167969 396.339844 240.621094 396.339844 237.476562 C 396.339844 234.335938 398.886719 231.789062 402.03125 231.789062 C 405.171875 231.789062 407.71875 234.335938 407.71875 237.476562 "/>
<path fill-rule="nonzero" fill="rgb(18.431373%, 30.980392%, 30.980392%)" fill-opacity="0.901961" stroke-width="0.708661" stroke-linecap="round" stroke-linejoin="round" stroke="rgb(18.431373%, 30.980392%, 30.980392%)" stroke-opacity="0.901961" stroke-miterlimit="10" d="M 359.847656 171.90625 C 359.847656 175.046875 357.300781 177.59375 354.160156 177.59375 C 351.015625 177.59375 348.46875 175.046875 348.46875 171.90625 C 348.46875 168.765625 351.015625 166.214844 354.160156 166.214844 C 357.300781 166.214844 359.847656 168.765625 359.847656 171.90625 "/>
<path fill-rule="nonzero" fill="rgb(18.431373%, 30.980392%, 30.980392%)" fill-opacity="0.901961" stroke-width="0.708661" stroke-linecap="round" stroke-linejoin="round" stroke="rgb(18.431373%, 30.980392%, 30.980392%)" stroke-opacity="0.901961" stroke-miterlimit="10" d="M 265.75 249.984375 C 265.75 253.125 263.203125 255.671875 260.058594 255.671875 C 256.917969 255.671875 254.371094 253.125 254.371094 249.984375 C 254.371094 246.839844 256.917969 244.292969 260.058594 244.292969 C 263.203125 244.292969 265.75 246.839844 265.75 249.984375 "/>
<path fill-rule="nonzero" fill="rgb(18.431373%, 30.980392%, 30.980392%)" fill-opacity="0.901961" stroke-width="0.708661" stroke-linecap="round" stroke-linejoin="round" stroke="rgb(18.431373%, 30.980392%, 30.980392%)" stroke-opacity="0.901961" stroke-miterlimit="10" d="M 127.714844 368.4375 C 127.714844 371.582031 125.167969 374.128906 122.027344 374.128906 C 118.882812 374.128906 116.335938 371.582031 116.335938 368.4375 C 116.335938 365.296875 118.882812 362.75 122.027344 362.75 C 125.167969 362.75 127.714844 365.296875 127.714844 368.4375 "/>
<path fill-rule="nonzero" fill="rgb(18.431373%, 30.980392%, 30.980392%)" fill-opacity="0.901961" stroke-width="0.708661" stroke-linecap="round" stroke-linejoin="round" stroke="rgb(18.431373%, 30.980392%, 30.980392%)" stroke-opacity="0.901961" stroke-miterlimit="10" d="M 542.859375 58.113281 C 542.859375 61.253906 540.3125 63.800781 537.171875 63.800781 C 534.027344 63.800781 531.480469 61.253906 531.480469 58.113281 C 531.480469 54.96875 534.027344 52.421875 537.171875 52.421875 C 540.3125 52.421875 542.859375 54.96875 542.859375 58.113281 "/>
<path fill-rule="nonzero" fill="rgb(18.431373%, 30.980392%, 30.980392%)" fill-opacity="0.901961" stroke-width="0.708661" stroke-linecap="round" stroke-linejoin="round" stroke="rgb(18.431373%, 30.980392%, 30.980392%)" stroke-opacity="0.901961" stroke-miterlimit="10" d="M 289.832031 233.902344 C 289.832031 237.042969 287.285156 239.589844 284.140625 239.589844 C 281 239.589844 278.453125 237.042969 278.453125 233.902344 C 278.453125 230.757812 281 228.210938 284.140625 228.210938 C 287.285156 228.210938 289.832031 230.757812 289.832031 233.902344 "/>
<path fill-rule="nonzero" fill="rgb(18.431373%, 30.980392%, 30.980392%)" fill-opacity="0.901961" stroke-width="0.708661" stroke-linecap="round" stroke-linejoin="round" stroke="rgb(18.431373%, 30.980392%, 30.980392%)" stroke-opacity="0.901961" stroke-miterlimit="10" d="M 438.398438 299.230469 C 438.398438 302.371094 435.851562 304.917969 432.710938 304.917969 C 429.566406 304.917969 427.019531 302.371094 427.019531 299.230469 C 427.019531 296.089844 429.566406 293.542969 432.710938 293.542969 C 435.851562 293.542969 438.398438 296.089844 438.398438 299.230469 "/>
<path fill-rule="nonzero" fill="rgb(18.431373%, 30.980392%, 30.980392%)" fill-opacity="0.901961" stroke-width="0.708661" stroke-linecap="round" stroke-linejoin="round" stroke="rgb(18.431373%, 30.980392%, 30.980392%)" stroke-opacity="0.901961" stroke-miterlimit="10" d="M 484.996094 173.382812 C 484.996094 176.527344 482.449219 179.074219 479.308594 179.074219 C 476.164062 179.074219 473.617188 176.527344 473.617188 173.382812 C 473.617188 170.242188 476.164062 167.695312 479.308594 167.695312 C 482.449219 167.695312 484.996094 170.242188 484.996094 173.382812 "/>
<path fill-rule="nonzero" fill="rgb(18.431373%, 30.980392%, 30.980392%)" fill-opacity="0.901961" stroke-width="0.708661" stroke-linecap="round" stroke-linejoin="round" stroke="rgb(18.431373%, 30.980392%, 30.980392%)" stroke-opacity="0.901961" stroke-miterlimit="10" d="M 511.207031 174.871094 C 511.207031 178.011719 508.65625 180.5625 505.515625 180.5625 C 502.375 180.5625 499.828125 178.011719 499.828125 174.871094 C 499.828125 171.730469 502.375 169.183594 505.515625 169.183594 C 508.65625 169.183594 511.207031 171.730469 511.207031 174.871094 "/>
<path fill-rule="nonzero" fill="rgb(18.431373%, 30.980392%, 30.980392%)" fill-opacity="0.901961" stroke-width="0.708661" stroke-linecap="round" stroke-linejoin="round" stroke="rgb(18.431373%, 30.980392%, 30.980392%)" stroke-opacity="0.901961" stroke-miterlimit="10" d="M 254.152344 342.550781 C 254.152344 345.695312 251.605469 348.242188 248.464844 348.242188 C 245.324219 348.242188 242.777344 345.695312 242.777344 342.550781 C 242.777344 339.410156 245.324219 336.863281 248.464844 336.863281 C 251.605469 336.863281 254.152344 339.410156 254.152344 342.550781 "/>
<path fill-rule="nonzero" fill="rgb(18.431373%, 30.980392%, 30.980392%)" fill-opacity="0.901961" stroke-width="0.708661" stroke-linecap="round" stroke-linejoin="round" stroke="rgb(18.431373%, 30.980392%, 30.980392%)" stroke-opacity="0.901961" stroke-miterlimit="10" d="M 654.203125 19.839844 C 654.203125 22.980469 651.65625 25.527344 648.515625 25.527344 C 645.371094 25.527344 642.824219 22.980469 642.824219 19.839844 C 642.824219 16.695312 645.371094 14.148438 648.515625 14.148438 C 651.65625 14.148438 654.203125 16.695312 654.203125 19.839844 "/>
<path fill-rule="nonzero" fill="rgb(18.431373%, 30.980392%, 30.980392%)" fill-opacity="0.901961" stroke-width="0.708661" stroke-linecap="round" stroke-linejoin="round" stroke="rgb(18.431373%, 30.980392%, 30.980392%)" stroke-opacity="0.901961" stroke-miterlimit="10" d="M 655.703125 127.785156 C 655.703125 130.929688 653.15625 133.476562 650.015625 133.476562 C 646.875 133.476562 644.328125 130.929688 644.328125 127.785156 C 644.328125 124.644531 646.875 122.097656 650.015625 122.097656 C 653.15625 122.097656 655.703125 124.644531 655.703125 127.785156 "/>
<path fill-rule="nonzero" fill="rgb(18.431373%, 30.980392%, 30.980392%)" fill-opacity="0.901961" stroke-width="0.708661" stroke-linecap="round" stroke-linejoin="round" stroke="rgb(18.431373%, 30.980392%, 30.980392%)" stroke-opacity="0.901961" stroke-miterlimit="10" d="M 580.554688 137.242188 C 580.554688 140.386719 578.007812 142.933594 574.867188 142.933594 C 571.722656 142.933594 569.175781 140.386719 569.175781 137.242188 C 569.175781 134.101562 571.722656 131.554688 574.867188 131.554688 C 578.007812 131.554688 580.554688 134.101562 580.554688 137.242188 "/>
<path fill-rule="nonzero" fill="rgb(18.431373%, 30.980392%, 30.980392%)" fill-opacity="0.901961" stroke-width="0.708661" stroke-linecap="round" stroke-linejoin="round" stroke="rgb(18.431373%, 30.980392%, 30.980392%)" stroke-opacity="0.901961" stroke-miterlimit="10" d="M 478.371094 237.191406 C 478.371094 240.335938 475.824219 242.882812 472.679688 242.882812 C 469.539062 242.882812 466.992188 240.335938 466.992188 237.191406 C 466.992188 234.050781 469.539062 231.503906 472.679688 231.503906 C 475.824219 231.503906 478.371094 234.050781 478.371094 237.191406 "/>
<path fill-rule="nonzero" fill="rgb(18.431373%, 30.980392%, 30.980392%)" fill-opacity="0.901961" stroke-width="0.708661" stroke-linecap="round" stroke-linejoin="round" stroke="rgb(18.431373%, 30.980392%, 30.980392%)" stroke-opacity="0.901961" stroke-miterlimit="10" d="M 392.707031 209.105469 C 392.707031 212.246094 390.160156 214.792969 387.019531 214.792969 C 383.875 214.792969 381.328125 212.246094 381.328125 209.105469 C 381.328125 205.960938 383.875 203.414062 387.019531 203.414062 C 390.160156 203.414062 392.707031 205.960938 392.707031 209.105469 "/>
<path fill-rule="nonzero" fill="rgb(18.431373%, 30.980392%, 30.980392%)" fill-opacity="0.901961" stroke-width="0.708661" stroke-linecap="round" stroke-linejoin="round" stroke="rgb(18.431373%, 30.980392%, 30.980392%)" stroke-opacity="0.901961" stroke-miterlimit="10" d="M 479.566406 179.4375 C 479.566406 182.582031 477.019531 185.128906 473.878906 185.128906 C 470.738281 185.128906 468.1875 182.582031 468.1875 179.4375 C 468.1875 176.296875 470.738281 173.75 473.878906 173.75 C 477.019531 173.75 479.566406 176.296875 479.566406 179.4375 "/>
<path fill-rule="nonzero" fill="rgb(18.431373%, 30.980392%, 30.980392%)" fill-opacity="0.901961" stroke-width="0.708661" stroke-linecap="round" stroke-linejoin="round" stroke="rgb(18.431373%, 30.980392%, 30.980392%)" stroke-opacity="0.901961" stroke-miterlimit="10" d="M 510.144531 144.292969 C 510.144531 147.433594 507.597656 149.980469 504.453125 149.980469 C 501.3125 149.980469 498.765625 147.433594 498.765625 144.292969 C 498.765625 141.152344 501.3125 138.605469 504.453125 138.605469 C 507.597656 138.605469 510.144531 141.152344 510.144531 144.292969 "/>
<path fill-rule="nonzero" fill="rgb(18.431373%, 30.980392%, 30.980392%)" fill-opacity="0.901961" stroke-width="0.708661" stroke-linecap="round" stroke-linejoin="round" stroke="rgb(18.431373%, 30.980392%, 30.980392%)" stroke-opacity="0.901961" stroke-miterlimit="10" d="M 554.5625 239.597656 C 554.5625 242.742188 552.015625 245.289062 548.875 245.289062 C 545.734375 245.289062 543.1875 242.742188 543.1875 239.597656 C 543.1875 236.457031 545.734375 233.910156 548.875 233.910156 C 552.015625 233.910156 554.5625 236.457031 554.5625 239.597656 "/>
<path fill-rule="nonzero" fill="rgb(18.431373%, 30.980392%, 30.980392%)" fill-opacity="0.901961" stroke-width="0.708661" stroke-linecap="round" stroke-linejoin="round" stroke="rgb(18.431373%, 30.980392%, 30.980392%)" stroke-opacity="0.901961" stroke-miterlimit="10" d="M 330.875 234.378906 C 330.875 237.519531 328.328125 240.066406 325.1875 240.066406 C 322.042969 240.066406 319.496094 237.519531 319.496094 234.378906 C 319.496094 231.238281 322.042969 228.691406 325.1875 228.691406 C 328.328125 228.691406 330.875 231.238281 330.875 234.378906 "/>
<path fill-rule="nonzero" fill="rgb(18.431373%, 30.980392%, 30.980392%)" fill-opacity="0.901961" stroke-width="0.708661" stroke-linecap="round" stroke-linejoin="round" stroke="rgb(18.431373%, 30.980392%, 30.980392%)" stroke-opacity="0.901961" stroke-miterlimit="10" d="M 340.484375 265.835938 C 340.484375 268.976562 337.9375 271.523438 334.796875 271.523438 C 331.652344 271.523438 329.105469 268.976562 329.105469 265.835938 C 329.105469 262.695312 331.652344 260.144531 334.796875 260.144531 C 337.9375 260.144531 340.484375 262.695312 340.484375 265.835938 "/>
<path fill-rule="nonzero" fill="rgb(18.431373%, 30.980392%, 30.980392%)" fill-opacity="0.901961" stroke-width="0.708661" stroke-linecap="round" stroke-linejoin="round" stroke="rgb(18.431373%, 30.980392%, 30.980392%)" stroke-opacity="0.901961" stroke-miterlimit="10" d="M 359.527344 269.5625 C 359.527344 272.707031 356.980469 275.253906 353.839844 275.253906 C 350.699219 275.253906 348.152344 272.707031 348.152344 269.5625 C 348.152344 266.421875 350.699219 263.875 353.839844 263.875 C 356.980469 263.875 359.527344 266.421875 359.527344 269.5625 "/>
<path fill-rule="nonzero" fill="rgb(18.431373%, 30.980392%, 30.980392%)" fill-opacity="0.901961" stroke-width="0.708661" stroke-linecap="round" stroke-linejoin="round" stroke="rgb(18.431373%, 30.980392%, 30.980392%)" stroke-opacity="0.901961" stroke-miterlimit="10" d="M 241.671875 228.132812 C 241.671875 231.273438 239.121094 233.820312 235.980469 233.820312 C 232.839844 233.820312 230.292969 231.273438 230.292969 228.132812 C 230.292969 224.992188 232.839844 222.441406 235.980469 222.441406 C 239.121094 222.441406 241.671875 224.992188 241.671875 228.132812 "/>
<path fill-rule="nonzero" fill="rgb(18.431373%, 30.980392%, 30.980392%)" fill-opacity="0.901961" stroke-width="0.708661" stroke-linecap="round" stroke-linejoin="round" stroke="rgb(18.431373%, 30.980392%, 30.980392%)" stroke-opacity="0.901961" stroke-miterlimit="10" d="M 466.605469 130.363281 C 466.605469 133.507812 464.058594 136.054688 460.917969 136.054688 C 457.773438 136.054688 455.226562 133.507812 455.226562 130.363281 C 455.226562 127.222656 457.773438 124.675781 460.917969 124.675781 C 464.058594 124.675781 466.605469 127.222656 466.605469 130.363281 "/>
<path fill-rule="nonzero" fill="rgb(18.431373%, 30.980392%, 30.980392%)" fill-opacity="0.901961" stroke-width="0.708661" stroke-linecap="round" stroke-linejoin="round" stroke="rgb(18.431373%, 30.980392%, 30.980392%)" stroke-opacity="0.901961" stroke-miterlimit="10" d="M 474.121094 213.214844 C 474.121094 216.355469 471.574219 218.902344 468.433594 218.902344 C 465.289062 218.902344 462.742188 216.355469 462.742188 213.214844 C 462.742188 210.070312 465.289062 207.523438 468.433594 207.523438 C 471.574219 207.523438 474.121094 210.070312 474.121094 213.214844 "/>
<path fill-rule="nonzero" fill="rgb(18.431373%, 30.980392%, 30.980392%)" fill-opacity="0.901961" stroke-width="0.708661" stroke-linecap="round" stroke-linejoin="round" stroke="rgb(18.431373%, 30.980392%, 30.980392%)" stroke-opacity="0.901961" stroke-miterlimit="10" d="M 620.261719 197.195312 C 620.261719 200.335938 617.714844 202.882812 614.574219 202.882812 C 611.429688 202.882812 608.882812 200.335938 608.882812 197.195312 C 608.882812 194.054688 611.429688 191.507812 614.574219 191.507812 C 617.714844 191.507812 620.261719 194.054688 620.261719 197.195312 "/>
<path fill-rule="nonzero" fill="rgb(18.431373%, 30.980392%, 30.980392%)" fill-opacity="0.901961" stroke-width="0.708661" stroke-linecap="round" stroke-linejoin="round" stroke="rgb(18.431373%, 30.980392%, 30.980392%)" stroke-opacity="0.901961" stroke-miterlimit="10" d="M 312.003906 233.222656 C 312.003906 236.367188 309.457031 238.914062 306.316406 238.914062 C 303.171875 238.914062 300.625 236.367188 300.625 233.222656 C 300.625 230.082031 303.171875 227.535156 306.316406 227.535156 C 309.457031 227.535156 312.003906 230.082031 312.003906 233.222656 "/>
<path fill-rule="nonzero" fill="rgb(18.431373%, 30.980392%, 30.980392%)" fill-opacity="0.901961" stroke-width="0.708661" stroke-linecap="round" stroke-linejoin="round" stroke="rgb(18.431373%, 30.980392%, 30.980392%)" stroke-opacity="0.901961" stroke-miterlimit="10" d="M 238.449219 318.839844 C 238.449219 321.980469 235.902344 324.527344 232.761719 324.527344 C 229.617188 324.527344 227.070312 321.980469 227.070312 318.839844 C 227.070312 315.695312 229.617188 313.148438 232.761719 313.148438 C 235.902344 313.148438 238.449219 315.695312 238.449219 318.839844 "/>
<path fill-rule="nonzero" fill="rgb(18.431373%, 30.980392%, 30.980392%)" fill-opacity="0.901961" stroke-width="0.708661" stroke-linecap="round" stroke-linejoin="round" stroke="rgb(18.431373%, 30.980392%, 30.980392%)" stroke-opacity="0.901961" stroke-miterlimit="10" d="M 547.113281 207.683594 C 547.113281 210.824219 544.566406 213.371094 541.425781 213.371094 C 538.28125 213.371094 535.734375 210.824219 535.734375 207.683594 C 535.734375 204.542969 538.28125 201.996094 541.425781 201.996094 C 544.566406 201.996094 547.113281 204.542969 547.113281 207.683594 "/>
<path fill-rule="nonzero" fill="rgb(18.431373%, 30.980392%, 30.980392%)" fill-opacity="0.901961" stroke-width="0.708661" stroke-linecap="round" stroke-linejoin="round" stroke="rgb(18.431373%, 30.980392%, 30.980392%)" stroke-opacity="0.901961" stroke-miterlimit="10" d="M 472.636719 273.960938 C 472.636719 277.101562 470.089844 279.648438 466.945312 279.648438 C 463.804688 279.648438 461.257812 277.101562 461.257812 273.960938 C 461.257812 270.816406 463.804688 268.269531 466.945312 268.269531 C 470.089844 268.269531 472.636719 270.816406 472.636719 273.960938 "/>
<path fill-rule="nonzero" fill="rgb(18.431373%, 30.980392%, 30.980392%)" fill-opacity="0.901961" stroke-width="0.708661" stroke-linecap="round" stroke-linejoin="round" stroke="rgb(18.431373%, 30.980392%, 30.980392%)" stroke-opacity="0.901961" stroke-miterlimit="10" d="M 302.535156 299.5625 C 302.535156 302.703125 299.988281 305.25 296.84375 305.25 C 293.703125 305.25 291.15625 302.703125 291.15625 299.5625 C 291.15625 296.417969 293.703125 293.871094 296.84375 293.871094 C 299.988281 293.871094 302.535156 296.417969 302.535156 299.5625 "/>
<path fill-rule="nonzero" fill="rgb(18.431373%, 30.980392%, 30.980392%)" fill-opacity="0.901961" stroke-width="0.708661" stroke-linecap="round" stroke-linejoin="round" stroke="rgb(18.431373%, 30.980392%, 30.980392%)" stroke-opacity="0.901961" stroke-miterlimit="10" d="M 456.429688 238.179688 C 456.429688 241.324219 453.882812 243.871094 450.742188 243.871094 C 447.597656 243.871094 445.050781 241.324219 445.050781 238.179688 C 445.050781 235.039062 447.597656 232.492188 450.742188 232.492188 C 453.882812 232.492188 456.429688 235.039062 456.429688 238.179688 "/>
<path fill-rule="nonzero" fill="rgb(18.431373%, 30.980392%, 30.980392%)" fill-opacity="0.901961" stroke-width="0.708661" stroke-linecap="round" stroke-linejoin="round" stroke="rgb(18.431373%, 30.980392%, 30.980392%)" stroke-opacity="0.901961" stroke-miterlimit="10" d="M 533.882812 107.289062 C 533.882812 110.433594 531.335938 112.980469 528.195312 112.980469 C 525.054688 112.980469 522.507812 110.433594 522.507812 107.289062 C 522.507812 104.148438 525.054688 101.601562 528.195312 101.601562 C 531.335938 101.601562 533.882812 104.148438 533.882812 107.289062 "/>
<path fill-rule="nonzero" fill="rgb(18.431373%, 30.980392%, 30.980392%)" fill-opacity="0.901961" stroke-width="0.708661" stroke-linecap="round" stroke-linejoin="round" stroke="rgb(18.431373%, 30.980392%, 30.980392%)" stroke-opacity="0.901961" stroke-miterlimit="10" d="M 311.847656 160.3125 C 311.847656 163.453125 309.300781 166.003906 306.160156 166.003906 C 303.019531 166.003906 300.472656 163.453125 300.472656 160.3125 C 300.472656 157.171875 303.019531 154.625 306.160156 154.625 C 309.300781 154.625 311.847656 157.171875 311.847656 160.3125 "/>
<path fill-rule="nonzero" fill="rgb(18.431373%, 30.980392%, 30.980392%)" fill-opacity="0.901961" stroke-width="0.708661" stroke-linecap="round" stroke-linejoin="round" stroke="rgb(18.431373%, 30.980392%, 30.980392%)" stroke-opacity="0.901961" stroke-miterlimit="10" d="M 595.089844 163.332031 C 595.089844 166.476562 592.542969 169.023438 589.402344 169.023438 C 586.257812 169.023438 583.710938 166.476562 583.710938 163.332031 C 583.710938 160.191406 586.257812 157.644531 589.402344 157.644531 C 592.542969 157.644531 595.089844 160.191406 595.089844 163.332031 "/>
<path fill-rule="nonzero" fill="rgb(18.431373%, 30.980392%, 30.980392%)" fill-opacity="0.901961" stroke-width="0.708661" stroke-linecap="round" stroke-linejoin="round" stroke="rgb(18.431373%, 30.980392%, 30.980392%)" stroke-opacity="0.901961" stroke-miterlimit="10" d="M 433.832031 238.90625 C 433.832031 242.046875 431.285156 244.59375 428.140625 244.59375 C 425 244.59375 422.453125 242.046875 422.453125 238.90625 C 422.453125 235.761719 425 233.214844 428.140625 233.214844 C 431.285156 233.214844 433.832031 235.761719 433.832031 238.90625 "/>
<path fill-rule="nonzero" fill="rgb(18.431373%, 30.980392%, 30.980392%)" fill-opacity="0.901961" stroke-width="0.708661" stroke-linecap="round" stroke-linejoin="round" stroke="rgb(18.431373%, 30.980392%, 30.980392%)" stroke-opacity="0.901961" stroke-miterlimit="10" d="M 45.898438 380.949219 C 45.898438 384.089844 43.351562 386.640625 40.207031 386.640625 C 37.066406 386.640625 34.519531 384.089844 34.519531 380.949219 C 34.519531 377.808594 37.066406 375.261719 40.207031 375.261719 C 43.351562 375.261719 45.898438 377.808594 45.898438 380.949219 "/>
<path fill-rule="nonzero" fill="rgb(18.431373%, 30.980392%, 30.980392%)" fill-opacity="0.901961" stroke-width="0.708661" stroke-linecap="round" stroke-linejoin="round" stroke="rgb(18.431373%, 30.980392%, 30.980392%)" stroke-opacity="0.901961" stroke-miterlimit="10" d="M 79.269531 368.019531 C 79.269531 371.160156 76.722656 373.707031 73.582031 373.707031 C 70.4375 373.707031 67.890625 371.160156 67.890625 368.019531 C 67.890625 364.878906 70.4375 362.332031 73.582031 362.332031 C 76.722656 362.332031 79.269531 364.878906 79.269531 368.019531 "/>
<path fill-rule="nonzero" fill="rgb(18.431373%, 30.980392%, 30.980392%)" fill-opacity="0.901961" stroke-width="0.708661" stroke-linecap="round" stroke-linejoin="round" stroke="rgb(18.431373%, 30.980392%, 30.980392%)" stroke-opacity="0.901961" stroke-miterlimit="10" d="M 443.785156 175.792969 C 443.785156 178.9375 441.238281 181.484375 438.097656 181.484375 C 434.953125 181.484375 432.40625 178.9375 432.40625 175.792969 C 432.40625 172.652344 434.953125 170.105469 438.097656 170.105469 C 441.238281 170.105469 443.785156 172.652344 443.785156 175.792969 "/>
<path fill-rule="nonzero" fill="rgb(18.431373%, 30.980392%, 30.980392%)" fill-opacity="0.901961" stroke-width="0.708661" stroke-linecap="round" stroke-linejoin="round" stroke="rgb(18.431373%, 30.980392%, 30.980392%)" stroke-opacity="0.901961" stroke-miterlimit="10" d="M 297.117188 195.308594 C 297.117188 198.449219 294.570312 200.996094 291.429688 200.996094 C 288.285156 200.996094 285.738281 198.449219 285.738281 195.308594 C 285.738281 192.164062 288.285156 189.617188 291.429688 189.617188 C 294.570312 189.617188 297.117188 192.164062 297.117188 195.308594 "/>
<path fill-rule="nonzero" fill="rgb(18.431373%, 30.980392%, 30.980392%)" fill-opacity="0.901961" stroke-width="0.708661" stroke-linecap="round" stroke-linejoin="round" stroke="rgb(18.431373%, 30.980392%, 30.980392%)" stroke-opacity="0.901961" stroke-miterlimit="10" d="M 339.175781 273.285156 C 339.175781 276.425781 336.628906 278.972656 333.488281 278.972656 C 330.347656 278.972656 327.796875 276.425781 327.796875 273.285156 C 327.796875 270.140625 330.347656 267.59375 333.488281 267.59375 C 336.628906 267.59375 339.175781 270.140625 339.175781 273.285156 "/>
<path fill-rule="nonzero" fill="rgb(18.431373%, 30.980392%, 30.980392%)" fill-opacity="0.901961" stroke-width="0.708661" stroke-linecap="round" stroke-linejoin="round" stroke="rgb(18.431373%, 30.980392%, 30.980392%)" stroke-opacity="0.901961" stroke-miterlimit="10" d="M 414.59375 149.765625 C 414.59375 152.90625 412.046875 155.453125 408.90625 155.453125 C 405.761719 155.453125 403.214844 152.90625 403.214844 149.765625 C 403.214844 146.621094 405.761719 144.074219 408.90625 144.074219 C 412.046875 144.074219 414.59375 146.621094 414.59375 149.765625 "/>
<path fill-rule="nonzero" fill="rgb(18.431373%, 30.980392%, 30.980392%)" fill-opacity="0.901961" stroke-width="0.708661" stroke-linecap="round" stroke-linejoin="round" stroke="rgb(18.431373%, 30.980392%, 30.980392%)" stroke-opacity="0.901961" stroke-miterlimit="10" d="M 378.796875 234.570312 C 378.796875 237.714844 376.25 240.261719 373.109375 240.261719 C 369.964844 240.261719 367.417969 237.714844 367.417969 234.570312 C 367.417969 231.429688 369.964844 228.882812 373.109375 228.882812 C 376.25 228.882812 378.796875 231.429688 378.796875 234.570312 "/>
<path fill-rule="nonzero" fill="rgb(18.431373%, 30.980392%, 30.980392%)" fill-opacity="0.901961" stroke-width="0.708661" stroke-linecap="round" stroke-linejoin="round" stroke="rgb(18.431373%, 30.980392%, 30.980392%)" stroke-opacity="0.901961" stroke-miterlimit="10" d="M 286.746094 340.144531 C 286.746094 343.285156 284.199219 345.835938 281.054688 345.835938 C 277.914062 345.835938 275.367188 343.285156 275.367188 340.144531 C 275.367188 337.003906 277.914062 334.457031 281.054688 334.457031 C 284.199219 334.457031 286.746094 337.003906 286.746094 340.144531 "/>
<path fill-rule="nonzero" fill="rgb(18.431373%, 30.980392%, 30.980392%)" fill-opacity="0.901961" stroke-width="0.708661" stroke-linecap="round" stroke-linejoin="round" stroke="rgb(18.431373%, 30.980392%, 30.980392%)" stroke-opacity="0.901961" stroke-miterlimit="10" d="M 246.570312 280.007812 C 246.570312 283.152344 244.023438 285.699219 240.878906 285.699219 C 237.738281 285.699219 235.191406 283.152344 235.191406 280.007812 C 235.191406 276.867188 237.738281 274.320312 240.878906 274.320312 C 244.023438 274.320312 246.570312 276.867188 246.570312 280.007812 "/>
<path fill-rule="nonzero" fill="rgb(18.431373%, 30.980392%, 30.980392%)" fill-opacity="0.901961" stroke-width="0.708661" stroke-linecap="round" stroke-linejoin="round" stroke="rgb(18.431373%, 30.980392%, 30.980392%)" stroke-opacity="0.901961" stroke-miterlimit="10" d="M 348.957031 226.777344 C 348.957031 229.921875 346.410156 232.46875 343.269531 232.46875 C 340.125 232.46875 337.578125 229.921875 337.578125 226.777344 C 337.578125 223.636719 340.125 221.089844 343.269531 221.089844 C 346.410156 221.089844 348.957031 223.636719 348.957031 226.777344 "/>
<path fill-rule="nonzero" fill="rgb(18.431373%, 30.980392%, 30.980392%)" fill-opacity="0.901961" stroke-width="0.708661" stroke-linecap="round" stroke-linejoin="round" stroke="rgb(18.431373%, 30.980392%, 30.980392%)" stroke-opacity="0.901961" stroke-miterlimit="10" d="M 648.152344 202.652344 C 648.152344 205.792969 645.605469 208.339844 642.464844 208.339844 C 639.320312 208.339844 636.773438 205.792969 636.773438 202.652344 C 636.773438 199.507812 639.320312 196.960938 642.464844 196.960938 C 645.605469 196.960938 648.152344 199.507812 648.152344 202.652344 "/>
<path fill-rule="nonzero" fill="rgb(18.431373%, 30.980392%, 30.980392%)" fill-opacity="0.901961" stroke-width="0.708661" stroke-linecap="round" stroke-linejoin="round" stroke="rgb(18.431373%, 30.980392%, 30.980392%)" stroke-opacity="0.901961" stroke-miterlimit="10" d="M 587.832031 212.136719 C 587.832031 215.277344 585.285156 217.824219 582.144531 217.824219 C 579.003906 217.824219 576.457031 215.277344 576.457031 212.136719 C 576.457031 208.992188 579.003906 206.445312 582.144531 206.445312 C 585.285156 206.445312 587.832031 208.992188 587.832031 212.136719 "/>
<path fill-rule="nonzero" fill="rgb(18.431373%, 30.980392%, 30.980392%)" fill-opacity="0.901961" stroke-width="0.708661" stroke-linecap="round" stroke-linejoin="round" stroke="rgb(18.431373%, 30.980392%, 30.980392%)" stroke-opacity="0.901961" stroke-miterlimit="10" d="M 387.289062 160.199219 C 387.289062 163.339844 384.742188 165.886719 381.601562 165.886719 C 378.457031 165.886719 375.910156 163.339844 375.910156 160.199219 C 375.910156 157.054688 378.457031 154.507812 381.601562 154.507812 C 384.742188 154.507812 387.289062 157.054688 387.289062 160.199219 "/>
<path fill-rule="nonzero" fill="rgb(18.431373%, 30.980392%, 30.980392%)" fill-opacity="0.901961" stroke-width="0.708661" stroke-linecap="round" stroke-linejoin="round" stroke="rgb(18.431373%, 30.980392%, 30.980392%)" stroke-opacity="0.901961" stroke-miterlimit="10" d="M 347.667969 167.527344 C 347.667969 170.671875 345.121094 173.21875 341.980469 173.21875 C 338.835938 173.21875 336.289062 170.671875 336.289062 167.527344 C 336.289062 164.386719 338.835938 161.839844 341.980469 161.839844 C 345.121094 161.839844 347.667969 164.386719 347.667969 167.527344 "/>
<path fill-rule="nonzero" fill="rgb(18.431373%, 30.980392%, 30.980392%)" fill-opacity="0.901961" stroke-width="0.708661" stroke-linecap="round" stroke-linejoin="round" stroke="rgb(18.431373%, 30.980392%, 30.980392%)" stroke-opacity="0.901961" stroke-miterlimit="10" d="M 118.714844 194.730469 C 118.714844 197.875 116.167969 200.421875 113.027344 200.421875 C 109.882812 200.421875 107.335938 197.875 107.335938 194.730469 C 107.335938 191.589844 109.882812 189.042969 113.027344 189.042969 C 116.167969 189.042969 118.714844 191.589844 118.714844 194.730469 "/>
<path fill-rule="nonzero" fill="rgb(18.431373%, 30.980392%, 30.980392%)" fill-opacity="0.901961" stroke-width="0.708661" stroke-linecap="round" stroke-linejoin="round" stroke="rgb(18.431373%, 30.980392%, 30.980392%)" stroke-opacity="0.901961" stroke-miterlimit="10" d="M 359.933594 304.355469 C 359.933594 307.5 357.386719 310.046875 354.246094 310.046875 C 351.101562 310.046875 348.554688 307.5 348.554688 304.355469 C 348.554688 301.214844 351.101562 298.667969 354.246094 298.667969 C 357.386719 298.667969 359.933594 301.214844 359.933594 304.355469 "/>
<path fill-rule="nonzero" fill="rgb(18.431373%, 30.980392%, 30.980392%)" fill-opacity="0.901961" stroke-width="0.708661" stroke-linecap="round" stroke-linejoin="round" stroke="rgb(18.431373%, 30.980392%, 30.980392%)" stroke-opacity="0.901961" stroke-miterlimit="10" d="M 473.492188 203.539062 C 473.492188 206.683594 470.945312 209.230469 467.800781 209.230469 C 464.660156 209.230469 462.113281 206.683594 462.113281 203.539062 C 462.113281 200.398438 464.660156 197.851562 467.800781 197.851562 C 470.945312 197.851562 473.492188 200.398438 473.492188 203.539062 "/>
<path fill-rule="nonzero" fill="rgb(18.431373%, 30.980392%, 30.980392%)" fill-opacity="0.901961" stroke-width="0.708661" stroke-linecap="round" stroke-linejoin="round" stroke="rgb(18.431373%, 30.980392%, 30.980392%)" stroke-opacity="0.901961" stroke-miterlimit="10" d="M 202.855469 232.710938 C 202.855469 235.851562 200.308594 238.398438 197.167969 238.398438 C 194.023438 238.398438 191.476562 235.851562 191.476562 232.710938 C 191.476562 229.566406 194.023438 227.019531 197.167969 227.019531 C 200.308594 227.019531 202.855469 229.566406 202.855469 232.710938 "/>
<path fill-rule="nonzero" fill="rgb(18.431373%, 30.980392%, 30.980392%)" fill-opacity="0.901961" stroke-width="0.708661" stroke-linecap="round" stroke-linejoin="round" stroke="rgb(18.431373%, 30.980392%, 30.980392%)" stroke-opacity="0.901961" stroke-miterlimit="10" d="M 498.703125 145.414062 C 498.703125 148.554688 496.15625 151.101562 493.011719 151.101562 C 489.871094 151.101562 487.324219 148.554688 487.324219 145.414062 C 487.324219 142.269531 489.871094 139.722656 493.011719 139.722656 C 496.15625 139.722656 498.703125 142.269531 498.703125 145.414062 "/>
<path fill-rule="nonzero" fill="rgb(18.431373%, 30.980392%, 30.980392%)" fill-opacity="0.901961" stroke-width="0.708661" stroke-linecap="round" stroke-linejoin="round" stroke="rgb(18.431373%, 30.980392%, 30.980392%)" stroke-opacity="0.901961" stroke-miterlimit="10" d="M 507.34375 201.175781 C 507.34375 204.320312 504.796875 206.867188 501.652344 206.867188 C 498.511719 206.867188 495.964844 204.320312 495.964844 201.175781 C 495.964844 198.035156 498.511719 195.488281 501.652344 195.488281 C 504.796875 195.488281 507.34375 198.035156 507.34375 201.175781 "/>
<path fill-rule="nonzero" fill="rgb(18.431373%, 30.980392%, 30.980392%)" fill-opacity="0.901961" stroke-width="0.708661" stroke-linecap="round" stroke-linejoin="round" stroke="rgb(18.431373%, 30.980392%, 30.980392%)" stroke-opacity="0.901961" stroke-miterlimit="10" d="M 211.710938 183.519531 C 211.710938 186.664062 209.164062 189.210938 206.019531 189.210938 C 202.878906 189.210938 200.332031 186.664062 200.332031 183.519531 C 200.332031 180.378906 202.878906 177.832031 206.019531 177.832031 C 209.164062 177.832031 211.710938 180.378906 211.710938 183.519531 "/>
<path fill-rule="nonzero" fill="rgb(18.431373%, 30.980392%, 30.980392%)" fill-opacity="0.901961" stroke-width="0.708661" stroke-linecap="round" stroke-linejoin="round" stroke="rgb(18.431373%, 30.980392%, 30.980392%)" stroke-opacity="0.901961" stroke-miterlimit="10" d="M 539.691406 28.105469 C 539.691406 31.246094 537.144531 33.792969 534.003906 33.792969 C 530.859375 33.792969 528.3125 31.246094 528.3125 28.105469 C 528.3125 24.960938 530.859375 22.414062 534.003906 22.414062 C 537.144531 22.414062 539.691406 24.960938 539.691406 28.105469 "/>
<path fill-rule="nonzero" fill="rgb(18.431373%, 30.980392%, 30.980392%)" fill-opacity="0.901961" stroke-width="0.708661" stroke-linecap="round" stroke-linejoin="round" stroke="rgb(18.431373%, 30.980392%, 30.980392%)" stroke-opacity="0.901961" stroke-miterlimit="10" d="M 329.847656 248.84375 C 329.847656 251.984375 327.300781 254.53125 324.160156 254.53125 C 321.015625 254.53125 318.46875 251.984375 318.46875 248.84375 C 318.46875 245.699219 321.015625 243.152344 324.160156 243.152344 C 327.300781 243.152344 329.847656 245.699219 329.847656 248.84375 "/>
<path fill-rule="nonzero" fill="rgb(18.431373%, 30.980392%, 30.980392%)" fill-opacity="0.901961" stroke-width="0.708661" stroke-linecap="round" stroke-linejoin="round" stroke="rgb(18.431373%, 30.980392%, 30.980392%)" stroke-opacity="0.901961" stroke-miterlimit="10" d="M 306.914062 322.089844 C 306.914062 325.234375 304.367188 327.78125 301.222656 327.78125 C 298.082031 327.78125 295.535156 325.234375 295.535156 322.089844 C 295.535156 318.949219 298.082031 316.402344 301.222656 316.402344 C 304.367188 316.402344 306.914062 318.949219 306.914062 322.089844 "/>
<path fill-rule="nonzero" fill="rgb(18.431373%, 30.980392%, 30.980392%)" fill-opacity="0.901961" stroke-width="0.708661" stroke-linecap="round" stroke-linejoin="round" stroke="rgb(18.431373%, 30.980392%, 30.980392%)" stroke-opacity="0.901961" stroke-miterlimit="10" d="M 508.199219 190.4375 C 508.199219 193.578125 505.652344 196.125 502.511719 196.125 C 499.367188 196.125 496.820312 193.578125 496.820312 190.4375 C 496.820312 187.292969 499.367188 184.746094 502.511719 184.746094 C 505.652344 184.746094 508.199219 187.292969 508.199219 190.4375 "/>
<path fill-rule="nonzero" fill="rgb(18.431373%, 30.980392%, 30.980392%)" fill-opacity="0.901961" stroke-width="0.708661" stroke-linecap="round" stroke-linejoin="round" stroke="rgb(18.431373%, 30.980392%, 30.980392%)" stroke-opacity="0.901961" stroke-miterlimit="10" d="M 433.304688 314.984375 C 433.304688 318.125 430.757812 320.671875 427.613281 320.671875 C 424.472656 320.671875 421.925781 318.125 421.925781 314.984375 C 421.925781 311.839844 424.472656 309.292969 427.613281 309.292969 C 430.757812 309.292969 433.304688 311.839844 433.304688 314.984375 "/>
<path fill-rule="nonzero" fill="rgb(18.431373%, 30.980392%, 30.980392%)" fill-opacity="0.901961" stroke-width="0.708661" stroke-linecap="round" stroke-linejoin="round" stroke="rgb(18.431373%, 30.980392%, 30.980392%)" stroke-opacity="0.901961" stroke-miterlimit="10" d="M 320.765625 200.851562 C 320.765625 203.996094 318.21875 206.542969 315.078125 206.542969 C 311.933594 206.542969 309.386719 203.996094 309.386719 200.851562 C 309.386719 197.710938 311.933594 195.164062 315.078125 195.164062 C 318.21875 195.164062 320.765625 197.710938 320.765625 200.851562 "/>
<path fill-rule="nonzero" fill="rgb(18.431373%, 30.980392%, 30.980392%)" fill-opacity="0.901961" stroke-width="0.708661" stroke-linecap="round" stroke-linejoin="round" stroke="rgb(18.431373%, 30.980392%, 30.980392%)" stroke-opacity="0.901961" stroke-miterlimit="10" d="M 199.210938 347.640625 C 199.210938 350.785156 196.660156 353.332031 193.519531 353.332031 C 190.378906 353.332031 187.832031 350.785156 187.832031 347.640625 C 187.832031 344.5 190.378906 341.953125 193.519531 341.953125 C 196.660156 341.953125 199.210938 344.5 199.210938 347.640625 "/>
<path fill-rule="nonzero" fill="rgb(18.431373%, 30.980392%, 30.980392%)" fill-opacity="0.901961" stroke-width="0.708661" stroke-linecap="round" stroke-linejoin="round" stroke="rgb(18.431373%, 30.980392%, 30.980392%)" stroke-opacity="0.901961" stroke-miterlimit="10" d="M 516.515625 135.238281 C 516.515625 138.378906 513.96875 140.925781 510.824219 140.925781 C 507.683594 140.925781 505.136719 138.378906 505.136719 135.238281 C 505.136719 132.09375 507.683594 129.546875 510.824219 129.546875 C 513.96875 129.546875 516.515625 132.09375 516.515625 135.238281 "/>
<path fill-rule="nonzero" fill="rgb(18.431373%, 30.980392%, 30.980392%)" fill-opacity="0.901961" stroke-width="0.708661" stroke-linecap="round" stroke-linejoin="round" stroke="rgb(18.431373%, 30.980392%, 30.980392%)" stroke-opacity="0.901961" stroke-miterlimit="10" d="M 212.683594 299.121094 C 212.683594 302.261719 210.136719 304.808594 206.996094 304.808594 C 203.851562 304.808594 201.304688 302.261719 201.304688 299.121094 C 201.304688 295.980469 203.851562 293.429688 206.996094 293.429688 C 210.136719 293.429688 212.683594 295.980469 212.683594 299.121094 "/>
<path fill-rule="nonzero" fill="rgb(18.431373%, 30.980392%, 30.980392%)" fill-opacity="0.901961" stroke-width="0.708661" stroke-linecap="round" stroke-linejoin="round" stroke="rgb(18.431373%, 30.980392%, 30.980392%)" stroke-opacity="0.901961" stroke-miterlimit="10" d="M 93.1875 316.007812 C 93.1875 319.148438 90.640625 321.695312 87.496094 321.695312 C 84.355469 321.695312 81.808594 319.148438 81.808594 316.007812 C 81.808594 312.863281 84.355469 310.316406 87.496094 310.316406 C 90.640625 310.316406 93.1875 312.863281 93.1875 316.007812 "/>
<path fill-rule="nonzero" fill="rgb(18.431373%, 30.980392%, 30.980392%)" fill-opacity="0.901961" stroke-width="0.708661" stroke-linecap="round" stroke-linejoin="round" stroke="rgb(18.431373%, 30.980392%, 30.980392%)" stroke-opacity="0.901961" stroke-miterlimit="10" d="M 522 243.628906 C 522 246.773438 519.449219 249.320312 516.308594 249.320312 C 513.167969 249.320312 510.621094 246.773438 510.621094 243.628906 C 510.621094 240.488281 513.167969 237.941406 516.308594 237.941406 C 519.449219 237.941406 522 240.488281 522 243.628906 "/>
<path fill-rule="nonzero" fill="rgb(18.431373%, 30.980392%, 30.980392%)" fill-opacity="0.901961" stroke-width="0.708661" stroke-linecap="round" stroke-linejoin="round" stroke="rgb(18.431373%, 30.980392%, 30.980392%)" stroke-opacity="0.901961" stroke-miterlimit="10" d="M 506.777344 169.503906 C 506.777344 172.644531 504.230469 175.191406 501.089844 175.191406 C 497.945312 175.191406 495.398438 172.644531 495.398438 169.503906 C 495.398438 166.359375 497.945312 163.8125 501.089844 163.8125 C 504.230469 163.8125 506.777344 166.359375 506.777344 169.503906 "/>
<path fill-rule="nonzero" fill="rgb(18.431373%, 30.980392%, 30.980392%)" fill-opacity="0.901961" stroke-width="0.708661" stroke-linecap="round" stroke-linejoin="round" stroke="rgb(18.431373%, 30.980392%, 30.980392%)" stroke-opacity="0.901961" stroke-miterlimit="10" d="M 462.492188 221.546875 C 462.492188 224.6875 459.945312 227.234375 456.804688 227.234375 C 453.660156 227.234375 451.113281 224.6875 451.113281 221.546875 C 451.113281 218.40625 453.660156 215.855469 456.804688 215.855469 C 459.945312 215.855469 462.492188 218.40625 462.492188 221.546875 "/>
<path fill-rule="nonzero" fill="rgb(18.431373%, 30.980392%, 30.980392%)" fill-opacity="0.901961" stroke-width="0.708661" stroke-linecap="round" stroke-linejoin="round" stroke="rgb(18.431373%, 30.980392%, 30.980392%)" stroke-opacity="0.901961" stroke-miterlimit="10" d="M 28.921875 345.707031 C 28.921875 348.851562 26.375 351.398438 23.234375 351.398438 C 20.089844 351.398438 17.542969 348.851562 17.542969 345.707031 C 17.542969 342.566406 20.089844 340.019531 23.234375 340.019531 C 26.375 340.019531 28.921875 342.566406 28.921875 345.707031 "/>
<path fill-rule="nonzero" fill="rgb(18.431373%, 30.980392%, 30.980392%)" fill-opacity="0.901961" stroke-width="0.708661" stroke-linecap="round" stroke-linejoin="round" stroke="rgb(18.431373%, 30.980392%, 30.980392%)" stroke-opacity="0.901961" stroke-miterlimit="10" d="M 336.101562 246.34375 C 336.101562 249.488281 333.554688 252.035156 330.410156 252.035156 C 327.269531 252.035156 324.722656 249.488281 324.722656 246.34375 C 324.722656 243.203125 327.269531 240.65625 330.410156 240.65625 C 333.554688 240.65625 336.101562 243.203125 336.101562 246.34375 "/>
<path fill-rule="nonzero" fill="rgb(18.431373%, 30.980392%, 30.980392%)" fill-opacity="0.901961" stroke-width="0.708661" stroke-linecap="round" stroke-linejoin="round" stroke="rgb(18.431373%, 30.980392%, 30.980392%)" stroke-opacity="0.901961" stroke-miterlimit="10" d="M 389.742188 161.378906 C 389.742188 164.519531 387.195312 167.066406 384.050781 167.066406 C 380.910156 167.066406 378.363281 164.519531 378.363281 161.378906 C 378.363281 158.234375 380.910156 155.6875 384.050781 155.6875 C 387.195312 155.6875 389.742188 158.234375 389.742188 161.378906 "/>
<path fill-rule="nonzero" fill="rgb(18.431373%, 30.980392%, 30.980392%)" fill-opacity="0.901961" stroke-width="0.708661" stroke-linecap="round" stroke-linejoin="round" stroke="rgb(18.431373%, 30.980392%, 30.980392%)" stroke-opacity="0.901961" stroke-miterlimit="10" d="M 555.832031 245.363281 C 555.832031 248.507812 553.285156 251.054688 550.144531 251.054688 C 547 251.054688 544.453125 248.507812 544.453125 245.363281 C 544.453125 242.222656 547 239.675781 550.144531 239.675781 C 553.285156 239.675781 555.832031 242.222656 555.832031 245.363281 "/>
<path fill-rule="nonzero" fill="rgb(18.431373%, 30.980392%, 30.980392%)" fill-opacity="0.901961" stroke-width="0.708661" stroke-linecap="round" stroke-linejoin="round" stroke="rgb(18.431373%, 30.980392%, 30.980392%)" stroke-opacity="0.901961" stroke-miterlimit="10" d="M 422.578125 220.167969 C 422.578125 223.308594 420.03125 225.855469 416.890625 225.855469 C 413.746094 225.855469 411.199219 223.308594 411.199219 220.167969 C 411.199219 217.027344 413.746094 214.480469 416.890625 214.480469 C 420.03125 214.480469 422.578125 217.027344 422.578125 220.167969 "/>
<path fill-rule="nonzero" fill="rgb(18.431373%, 30.980392%, 30.980392%)" fill-opacity="0.901961" stroke-width="0.708661" stroke-linecap="round" stroke-linejoin="round" stroke="rgb(18.431373%, 30.980392%, 30.980392%)" stroke-opacity="0.901961" stroke-miterlimit="10" d="M 186.675781 292.792969 C 186.675781 295.933594 184.128906 298.480469 180.988281 298.480469 C 177.847656 298.480469 175.296875 295.933594 175.296875 292.792969 C 175.296875 289.648438 177.847656 287.101562 180.988281 287.101562 C 184.128906 287.101562 186.675781 289.648438 186.675781 292.792969 "/>
<path fill="none" stroke-width="4.267913" stroke-linecap="butt" stroke-linejoin="round" stroke="rgb(100%, 64.705882%, 0%)" stroke-opacity="0.901961" stroke-miterlimit="10" d="M -779.320312 264.015625 L 1523.660156 15.859375 "/>
</svg>
