<?xml version="1.0" encoding="UTF-8"?>
<svg xmlns="http://www.w3.org/2000/svg" xmlns:xlink="http://www.w3.org/1999/xlink" width="756" height="504" viewBox="0 0 756 504">
<rect x="-75.6" y="-50.4" width="907.2" height="604.8" fill="rgb(100%, 100%, 100%)" fill-opacity="1"/>
<path fill="none" stroke-width="6.40187" stroke-linecap="butt" stroke-linejoin="round" stroke="rgb(90.196078%, 25.490196%, 45.098039%)" stroke-opacity="1" stroke-miterlimit="10" d="M -779.320312 679.800781 L 1523.660156 -139.738281 "/>
<path fill-rule="nonzero" fill="rgb(18.431373%, 30.980392%, 30.980392%)" fill-opacity="1" stroke-width="0.708661" stroke-linecap="round" stroke-linejoin="round" stroke="rgb(18.431373%, 30.980392%, 30.980392%)" stroke-opacity="1" stroke-miterlimit="10" d="M 375.375 229.527344 C 375.375 233.257812 372.347656 236.285156 368.617188 236.285156 C 364.886719 236.285156 361.863281 233.257812 361.863281 229.527344 C 361.863281 225.796875 364.886719 222.769531 368.617188 222.769531 C 372.347656 222.769531 375.375 225.796875 375.375 229.527344 "/>
<path fill-rule="nonzero" fill="rgb(18.431373%, 30.980392%, 30.980392%)" fill-opacity="1" stroke-width="0.708661" stroke-linecap="round" stroke-linejoin="round" stroke="rgb(18.431373%, 30.980392%, 30.980392%)" stroke-opacity="1" stroke-miterlimit="10" d="M 198.246094 215.816406 C 198.246094 219.550781 195.222656 222.574219 191.488281 222.574219 C 187.757812 222.574219 184.734375 219.550781 184.734375 215.816406 C 184.734375 212.085938 187.757812 209.0625 191.488281 209.0625 C 195.222656 209.0625 198.246094 212.085938 198.246094 215.816406 "/>
<path fill-rule="nonzero" fill="rgb(18.431373%, 30.980392%, 30.980392%)" fill-opacity="1" stroke-width="0.708661" stroke-linecap="round" stroke-linejoin="round" stroke="rgb(18.431373%, 30.980392%, 30.980392%)" stroke-opacity="1" stroke-miterlimit="10" d="M 453.222656 485.347656 C 453.222656 489.078125 450.195312 492.105469 446.464844 492.105469 C 442.734375 492.105469 439.710938 489.078125 439.710938 485.347656 C 439.710938 481.617188 442.734375 478.59375 446.464844 478.59375 C 450.195312 478.59375 453.222656 481.617188 453.222656 485.347656 "/>
<path fill-rule="nonzero" fill="rgb(18.431373%, 30.980392%, 30.980392%)" fill-opacity="1" stroke-width="0.708661" stroke-linecap="round" stroke-linejoin="round" stroke="rgb(18.431373%, 30.980392%, 30.980392%)" stroke-opacity="1" stroke-miterlimit="10" d="M 397.449219 325.804688 C 397.449219 329.535156 394.425781 332.558594 390.695312 332.558594 C 386.964844 332.558594 383.9375 329.535156 383.9375 325.804688 C 383.9375 322.074219 386.964844 319.046875 390.695312 319.046875 C 394.425781 319.046875 397.449219 322.074219 397.449219 325.804688 "/>
<path fill-rule="nonzero" fill="rgb(18.431373%, 30.980392%, 30.980392%)" fill-opacity="1" stroke-width="0.708661" stroke-linecap="round" stroke-linejoin="round" stroke="rgb(18.431373%, 30.980392%, 30.980392%)" stroke-opacity="1" stroke-miterlimit="10" d="M 315.292969 202.367188 C 315.292969 206.097656 312.269531 209.121094 308.539062 209.121094 C 304.808594 209.121094 301.78125 206.097656 301.78125 202.367188 C 301.78125 198.636719 304.808594 195.609375 308.539062 195.609375 C 312.269531 195.609375 315.292969 198.636719 315.292969 202.367188 "/>
<path fill-rule="nonzero" fill="rgb(18.431373%, 30.980392%, 30.980392%)" fill-opacity="1" stroke-width="0.708661" stroke-linecap="round" stroke-linejoin="round" stroke="rgb(18.431373%, 30.980392%, 30.980392%)" stroke-opacity="1" stroke-miterlimit="10" d="M 402.832031 297.0625 C 402.832031 300.796875 399.808594 303.820312 396.078125 303.820312 C 392.347656 303.820312 389.320312 300.796875 389.320312 297.0625 C 389.320312 293.332031 392.347656 290.308594 396.078125 290.308594 C 399.808594 290.308594 402.832031 293.332031 402.832031 297.0625 "/>
<path fill-rule="nonzero" fill="rgb(18.431373%, 30.980392%, 30.980392%)" fill-opacity="1" stroke-width="0.708661" stroke-linecap="round" stroke-linejoin="round" stroke="rgb(18.431373%, 30.980392%, 30.980392%)" stroke-opacity="1" stroke-miterlimit="10" d="M 396.246094 204.351562 C 396.246094 208.085938 393.21875 211.109375 389.488281 211.109375 C 385.757812 211.109375 382.730469 208.085938 382.730469 204.351562 C 382.730469 200.621094 385.757812 197.597656 389.488281 197.597656 C 393.21875 197.597656 396.246094 200.621094 396.246094 204.351562 "/>
<path fill-rule="nonzero" fill="rgb(18.431373%, 30.980392%, 30.980392%)" fill-opacity="1" stroke-width="0.708661" stroke-linecap="round" stroke-linejoin="round" stroke="rgb(18.431373%, 30.980392%, 30.980392%)" stroke-opacity="1" stroke-miterlimit="10" d="M 283.292969 399.082031 C 283.292969 402.8125 280.265625 405.835938 276.535156 405.835938 C 272.804688 405.835938 269.78125 402.8125 269.78125 399.082031 C 269.78125 395.347656 272.804688 392.324219 276.535156 392.324219 C 280.265625 392.324219 283.292969 395.347656 283.292969 399.082031 "/>
<path fill-rule="nonzero" fill="rgb(18.431373%, 30.980392%, 30.980392%)" fill-opacity="1" stroke-width="0.708661" stroke-linecap="round" stroke-linejoin="round" stroke="rgb(18.431373%, 30.980392%, 30.980392%)" stroke-opacity="1" stroke-miterlimit="10" d="M 483.957031 261.789062 C 483.957031 265.519531 480.929688 268.546875 477.199219 268.546875 C 473.46875 268.546875 470.441406 265.519531 470.441406 261.789062 C 470.441406 258.058594 473.46875 255.03125 477.199219 255.03125 C 480.929688 255.03125 483.957031 258.058594 483.957031 261.789062 "/>
<path fill-rule="nonzero" fill="rgb(18.431373%, 30.980392%, 30.980392%)" fill-opacity="1" stroke-width="0.708661" stroke-linecap="round" stroke-linejoin="round" stroke="rgb(18.431373%, 30.980392%, 30.980392%)" stroke-opacity="1" stroke-miterlimit="10" d="M 582.179688 94.210938 C 582.179688 97.941406 579.15625 100.96875 575.421875 100.96875 C 571.691406 100.96875 568.667969 97.941406 568.667969 94.210938 C 568.667969 90.480469 571.691406 87.453125 575.421875 87.453125 C 579.15625 87.453125 582.179688 90.480469 582.179688 94.210938 "/>
<path fill-rule="nonzero" fill="rgb(18.431373%, 30.980392%, 30.980392%)" fill-opacity="1" stroke-width="0.708661" stroke-linecap="round" stroke-linejoin="round" stroke="rgb(18.431373%, 30.980392%, 30.980392%)" stroke-opacity="1" stroke-miterlimit="10" d="M 301.566406 422.8125 C 301.566406 426.546875 298.542969 429.570312 294.808594 429.570312 C 291.078125 429.570312 288.054688 426.546875 288.054688 422.8125 C 288.054688 419.082031 291.078125 416.058594 294.808594 416.058594 C 298.542969 416.058594 301.566406 419.082031 301.566406 422.8125 "/>
<path fill-rule="nonzero" fill="rgb(18.431373%, 30.980392%, 30.980392%)" fill-opacity="1" stroke-width="0.708661" stroke-linecap="round" stroke-linejoin="round" stroke="rgb(18.431373%, 30.980392%, 30.980392%)" stroke-opacity="1" stroke-miterlimit="10" d="M 257.53125 254.363281 C 257.53125 258.09375 254.507812 261.117188 250.773438 261.117188 C 247.042969 261.117188 244.019531 258.09375 244.019531 254.363281 C 244.019531 250.628906 247.042969 247.605469 250.773438 247.605469 C 254.507812 247.605469 257.53125 250.628906 257.53125 254.363281 "/>
<path fill-rule="nonzero" fill="rgb(18.431373%, 30.980392%, 30.980392%)" fill-opacity="1" stroke-width="0.708661" stroke-linecap="round" stroke-linejoin="round" stroke="rgb(18.431373%, 30.980392%, 30.980392%)" stroke-opacity="1" stroke-miterlimit="10" d="M 403.332031 322.757812 C 403.332031 326.488281 400.308594 329.515625 396.578125 329.515625 C 392.84375 329.515625 389.820312 326.488281 389.820312 322.757812 C 389.820312 319.027344 392.84375 316.003906 396.578125 316.003906 C 400.308594 316.003906 403.332031 319.027344 403.332031 322.757812 "/>
<path fill-rule="nonzero" fill="rgb(18.431373%, 30.980392%, 30.980392%)" fill-opacity="1" stroke-width="0.708661" stroke-linecap="round" stroke-linejoin="round" stroke="rgb(18.431373%, 30.980392%, 30.980392%)" stroke-opacity="1" stroke-miterlimit="10" d="M 310.117188 313.53125 C 310.117188 317.265625 307.09375 320.289062 303.363281 320.289062 C 299.632812 320.289062 296.605469 317.265625 296.605469 313.53125 C 296.605469 309.800781 299.632812 306.777344 303.363281 306.777344 C 307.09375 306.777344 310.117188 309.800781 310.117188 313.53125 "/>
<path fill-rule="nonzero" fill="rgb(18.431373%, 30.980392%, 30.980392%)" fill-opacity="1" stroke-width="0.708661" stroke-linecap="round" stroke-linejoin="round" stroke="rgb(18.431373%, 30.980392%, 30.980392%)" stroke-opacity="1" stroke-miterlimit="10" d="M 593.003906 207.410156 C 593.003906 211.140625 589.980469 214.167969 586.25 214.167969 C 582.519531 214.167969 579.492188 211.140625 579.492188 207.410156 C 579.492188 203.679688 582.519531 200.652344 586.25 200.652344 C 589.980469 200.652344 593.003906 203.679688 593.003906 207.410156 "/>
<path fill-rule="nonzero" fill="rgb(18.431373%, 30.980392%, 30.980392%)" fill-opacity="1" stroke-width="0.708661" stroke-linecap="round" stroke-linejoin="round" stroke="rgb(18.431373%, 30.980392%, 30.980392%)" stroke-opacity="1" stroke-miterlimit="10" d="M 298.988281 158.898438 C 298.988281 162.628906 295.964844 165.65625 292.230469 165.65625 C 288.5 165.65625 285.476562 162.628906 285.476562 158.898438 C 285.476562 155.167969 288.5 152.140625 292.230469 152.140625 C 295.964844 152.140625 298.988281 155.167969 298.988281 158.898438 "/>
<path fill-rule="nonzero" fill="rgb(18.431373%, 30.980392%, 30.980392%)" fill-opacity="1" stroke-width="0.708661" stroke-linecap="round" stroke-linejoin="round" stroke="rgb(18.431373%, 30.980392%, 30.980392%)" stroke-opacity="1" stroke-miterlimit="10" d="M 471.117188 201.980469 C 471.117188 205.710938 468.09375 208.734375 464.363281 208.734375 C 460.628906 208.734375 457.605469 205.710938 457.605469 201.980469 C 457.605469 198.246094 460.628906 195.222656 464.363281 195.222656 C 468.09375 195.222656 471.117188 198.246094 471.117188 201.980469 "/>
<path fill-rule="nonzero" fill="rgb(18.431373%, 30.980392%, 30.980392%)" fill-opacity="1" stroke-width="0.708661" stroke-linecap="round" stroke-linejoin="round" stroke="rgb(18.431373%, 30.980392%, 30.980392%)" stroke-opacity="1" stroke-miterlimit="10" d="M 568.078125 302.339844 C 568.078125 306.070312 565.054688 309.09375 561.324219 309.09375 C 557.589844 309.09375 554.566406 306.070312 554.566406 302.339844 C 554.566406 298.609375 557.589844 295.582031 561.324219 295.582031 C 565.054688 295.582031 568.078125 298.609375 568.078125 302.339844 "/>
<path fill-rule="nonzero" fill="rgb(18.431373%, 30.980392%, 30.980392%)" fill-opacity="1" stroke-width="0.708661" stroke-linecap="round" stroke-linejoin="round" stroke="rgb(18.431373%, 30.980392%, 30.980392%)" stroke-opacity="1" stroke-miterlimit="10" d="M 727.863281 115.472656 C 727.863281 119.203125 724.835938 122.226562 721.105469 122.226562 C 717.375 122.226562 714.351562 119.203125 714.351562 115.472656 C 714.351562 111.738281 717.375 108.714844 721.105469 108.714844 C 724.835938 108.714844 727.863281 111.738281 727.863281 115.472656 "/>
<path fill-rule="nonzero" fill="rgb(18.431373%, 30.980392%, 30.980392%)" fill-opacity="1" stroke-width="0.708661" stroke-linecap="round" stroke-linejoin="round" stroke="rgb(18.431373%, 30.980392%, 30.980392%)" stroke-opacity="1" stroke-miterlimit="10" d="M 425.90625 309.050781 C 425.90625 312.78125 422.878906 315.804688 419.148438 315.804688 C 415.417969 315.804688 412.394531 312.78125 412.394531 309.050781 C 412.394531 305.316406 415.417969 302.292969 419.148438 302.292969 C 422.878906 302.292969 425.90625 305.316406 425.90625 309.050781 "/>
<path fill-rule="nonzero" fill="rgb(18.431373%, 30.980392%, 30.980392%)" fill-opacity="1" stroke-width="0.708661" stroke-linecap="round" stroke-linejoin="round" stroke="rgb(18.431373%, 30.980392%, 30.980392%)" stroke-opacity="1" stroke-miterlimit="10" d="M 614.90625 244.914062 C 614.90625 248.648438 611.878906 251.671875 608.148438 251.671875 C 604.417969 251.671875 601.390625 248.648438 601.390625 244.914062 C 601.390625 241.183594 604.417969 238.160156 608.148438 238.160156 C 611.878906 238.160156 614.90625 241.183594 614.90625 244.914062 "/>
<path fill-rule="nonzero" fill="rgb(18.431373%, 30.980392%, 30.980392%)" fill-opacity="1" stroke-width="0.708661" stroke-linecap="round" stroke-linejoin="round" stroke="rgb(18.431373%, 30.980392%, 30.980392%)" stroke-opacity="1" stroke-miterlimit="10" d="M 450.296875 332.375 C 450.296875 336.105469 447.273438 339.128906 443.539062 339.128906 C 439.808594 339.128906 436.785156 336.105469 436.785156 332.375 C 436.785156 328.644531 439.808594 325.617188 443.539062 325.617188 C 447.273438 325.617188 450.296875 328.644531 450.296875 332.375 "/>
<path fill-rule="nonzero" fill="rgb(18.431373%, 30.980392%, 30.980392%)" fill-opacity="1" stroke-width="0.708661" stroke-linecap="round" stroke-linejoin="round" stroke="rgb(18.431373%, 30.980392%, 30.980392%)" stroke-opacity="1" stroke-miterlimit="10" d="M 390.984375 311.710938 C 390.984375 315.441406 387.957031 318.464844 384.226562 318.464844 C 380.496094 318.464844 377.472656 315.441406 377.472656 311.710938 C 377.472656 307.976562 380.496094 304.953125 384.226562 304.953125 C 387.957031 304.953125 390.984375 307.976562 390.984375 311.710938 "/>
<path fill-rule="nonzero" fill="rgb(18.431373%, 30.980392%, 30.980392%)" fill-opacity="1" stroke-width="0.708661" stroke-linecap="round" stroke-linejoin="round" stroke="rgb(18.431373%, 30.980392%, 30.980392%)" stroke-opacity="1" stroke-miterlimit="10" d="M 426.105469 287.601562 C 426.105469 291.332031 423.078125 294.359375 419.347656 294.359375 C 415.617188 294.359375 412.59375 291.332031 412.59375 287.601562 C 412.59375 283.871094 415.617188 280.847656 419.347656 280.847656 C 423.078125 280.847656 426.105469 283.871094 426.105469 287.601562 "/>
<path fill-rule="nonzero" fill="rgb(18.431373%, 30.980392%, 30.980392%)" fill-opacity="1" stroke-width="0.708661" stroke-linecap="round" stroke-linejoin="round" stroke="rgb(18.431373%, 30.980392%, 30.980392%)" stroke-opacity="1" stroke-miterlimit="10" d="M 570.476562 255.476562 C 570.476562 259.207031 567.449219 262.234375 563.71875 262.234375 C 559.988281 262.234375 556.964844 259.207031 556.964844 255.476562 C 556.964844 251.746094 559.988281 248.722656 563.71875 248.722656 C 567.449219 248.722656 570.476562 251.746094 570.476562 255.476562 "/>
<path fill-rule="nonzero" fill="rgb(18.431373%, 30.980392%, 30.980392%)" fill-opacity="1" stroke-width="0.708661" stroke-linecap="round" stroke-linejoin="round" stroke="rgb(18.431373%, 30.980392%, 30.980392%)" stroke-opacity="1" stroke-miterlimit="10" d="M 408.785156 276.652344 C 408.785156 280.386719 405.761719 283.410156 402.03125 283.410156 C 398.300781 283.410156 395.273438 280.386719 395.273438 276.652344 C 395.273438 272.921875 398.300781 269.898438 402.03125 269.898438 C 405.761719 269.898438 408.785156 272.921875 408.785156 276.652344 "/>
<path fill-rule="nonzero" fill="rgb(18.431373%, 30.980392%, 30.980392%)" fill-opacity="1" stroke-width="0.708661" stroke-linecap="round" stroke-linejoin="round" stroke="rgb(18.431373%, 30.980392%, 30.980392%)" stroke-opacity="1" stroke-miterlimit="10" d="M 360.914062 200.265625 C 360.914062 203.996094 357.890625 207.019531 354.160156 207.019531 C 350.429688 207.019531 347.402344 203.996094 347.402344 200.265625 C 347.402344 196.53125 350.429688 193.507812 354.160156 193.507812 C 357.890625 193.507812 360.914062 196.53125 360.914062 200.265625 "/>
<path fill-rule="nonzero" fill="rgb(18.431373%, 30.980392%, 30.980392%)" fill-opacity="1" stroke-width="0.708661" stroke-linecap="round" stroke-linejoin="round" stroke="rgb(18.431373%, 30.980392%, 30.980392%)" stroke-opacity="1" stroke-miterlimit="10" d="M 266.816406 291.222656 C 266.816406 294.953125 263.792969 297.976562 260.058594 297.976562 C 256.328125 297.976562 253.304688 294.953125 253.304688 291.222656 C 253.304688 287.488281 256.328125 284.464844 260.058594 284.464844 C 263.792969 284.464844 266.816406 287.488281 266.816406 291.222656 "/>
<path fill-rule="nonzero" fill="rgb(18.431373%, 30.980392%, 30.980392%)" fill-opacity="1" stroke-width="0.708661" stroke-linecap="round" stroke-linejoin="round" stroke="rgb(18.431373%, 30.980392%, 30.980392%)" stroke-opacity="1" stroke-miterlimit="10" d="M 128.78125 429.21875 C 128.78125 432.949219 125.757812 435.972656 122.027344 435.972656 C 118.296875 435.972656 115.269531 432.949219 115.269531 429.21875 C 115.269531 425.488281 118.296875 422.460938 122.027344 422.460938 C 125.757812 422.460938 128.78125 425.488281 128.78125 429.21875 "/>
<path fill-rule="nonzero" fill="rgb(18.431373%, 30.980392%, 30.980392%)" fill-opacity="1" stroke-width="0.708661" stroke-linecap="round" stroke-linejoin="round" stroke="rgb(18.431373%, 30.980392%, 30.980392%)" stroke-opacity="1" stroke-miterlimit="10" d="M 543.925781 67.699219 C 543.925781 71.429688 540.902344 74.457031 537.171875 74.457031 C 533.4375 74.457031 530.414062 71.429688 530.414062 67.699219 C 530.414062 63.96875 533.4375 60.941406 537.171875 60.941406 C 540.902344 60.941406 543.925781 63.96875 543.925781 67.699219 "/>
<path fill-rule="nonzero" fill="rgb(18.431373%, 30.980392%, 30.980392%)" fill-opacity="1" stroke-width="0.708661" stroke-linecap="round" stroke-linejoin="round" stroke="rgb(18.431373%, 30.980392%, 30.980392%)" stroke-opacity="1" stroke-miterlimit="10" d="M 290.898438 272.488281 C 290.898438 276.21875 287.875 279.242188 284.140625 279.242188 C 280.410156 279.242188 277.386719 276.21875 277.386719 272.488281 C 277.386719 268.753906 280.410156 265.730469 284.140625 265.730469 C 287.875 265.730469 290.898438 268.753906 290.898438 272.488281 "/>
<path fill-rule="nonzero" fill="rgb(18.431373%, 30.980392%, 30.980392%)" fill-opacity="1" stroke-width="0.708661" stroke-linecap="round" stroke-linejoin="round" stroke="rgb(18.431373%, 30.980392%, 30.980392%)" stroke-opacity="1" stroke-miterlimit="10" d="M 439.464844 348.59375 C 439.464844 352.324219 436.441406 355.347656 432.710938 355.347656 C 428.976562 355.347656 425.953125 352.324219 425.953125 348.59375 C 425.953125 344.863281 428.976562 341.835938 432.710938 341.835938 C 436.441406 341.835938 439.464844 344.863281 439.464844 348.59375 "/>
<path fill-rule="nonzero" fill="rgb(18.431373%, 30.980392%, 30.980392%)" fill-opacity="1" stroke-width="0.708661" stroke-linecap="round" stroke-linejoin="round" stroke="rgb(18.431373%, 30.980392%, 30.980392%)" stroke-opacity="1" stroke-miterlimit="10" d="M 486.0625 201.988281 C 486.0625 205.71875 483.039062 208.742188 479.308594 208.742188 C 475.574219 208.742188 472.550781 205.71875 472.550781 201.988281 C 472.550781 198.253906 475.574219 195.230469 479.308594 195.230469 C 483.039062 195.230469 486.0625 198.253906 486.0625 201.988281 "/>
<path fill-rule="nonzero" fill="rgb(18.431373%, 30.980392%, 30.980392%)" fill-opacity="1" stroke-width="0.708661" stroke-linecap="round" stroke-linejoin="round" stroke="rgb(18.431373%, 30.980392%, 30.980392%)" stroke-opacity="1" stroke-miterlimit="10" d="M 512.273438 203.71875 C 512.273438 207.449219 509.246094 210.476562 505.515625 210.476562 C 501.785156 210.476562 498.757812 207.449219 498.757812 203.71875 C 498.757812 199.988281 501.785156 196.960938 505.515625 196.960938 C 509.246094 196.960938 512.273438 199.988281 512.273438 203.71875 "/>
<path fill-rule="nonzero" fill="rgb(18.431373%, 30.980392%, 30.980392%)" fill-opacity="1" stroke-width="0.708661" stroke-linecap="round" stroke-linejoin="round" stroke="rgb(18.431373%, 30.980392%, 30.980392%)" stroke-opacity="1" stroke-miterlimit="10" d="M 255.222656 399.058594 C 255.222656 402.792969 252.195312 405.816406 248.464844 405.816406 C 244.734375 405.816406 241.707031 402.792969 241.707031 399.058594 C 241.707031 395.328125 244.734375 392.304688 248.464844 392.304688 C 252.195312 392.304688 255.222656 395.328125 255.222656 399.058594 "/>
<path fill-rule="nonzero" fill="rgb(18.431373%, 30.980392%, 30.980392%)" fill-opacity="1" stroke-width="0.708661" stroke-linecap="round" stroke-linejoin="round" stroke="rgb(18.431373%, 30.980392%, 30.980392%)" stroke-opacity="1" stroke-miterlimit="10" d="M 655.269531 23.113281 C 655.269531 26.84375 652.246094 29.867188 648.515625 29.867188 C 644.78125 29.867188 641.757812 26.84375 641.757812 23.113281 C 641.757812 19.378906 644.78125 16.355469 648.515625 16.355469 C 652.246094 16.355469 655.269531 19.378906 655.269531 23.113281 "/>
<path fill-rule="nonzero" fill="rgb(18.431373%, 30.980392%, 30.980392%)" fill-opacity="1" stroke-width="0.708661" stroke-linecap="round" stroke-linejoin="round" stroke="rgb(18.431373%, 30.980392%, 30.980392%)" stroke-opacity="1" stroke-miterlimit="10" d="M 656.773438 148.867188 C 656.773438 152.597656 653.746094 155.621094 650.015625 155.621094 C 646.285156 155.621094 643.257812 152.597656 643.257812 148.867188 C 643.257812 145.136719 646.285156 142.109375 650.015625 142.109375 C 653.746094 142.109375 656.773438 145.136719 656.773438 148.867188 "/>
<path fill-rule="nonzero" fill="rgb(18.431373%, 30.980392%, 30.980392%)" fill-opacity="1" stroke-width="0.708661" stroke-linecap="round" stroke-linejoin="round" stroke="rgb(18.431373%, 30.980392%, 30.980392%)" stroke-opacity="1" stroke-miterlimit="10" d="M 581.621094 159.882812 C 581.621094 163.613281 578.597656 166.640625 574.867188 166.640625 C 571.136719 166.640625 568.109375 163.613281 568.109375 159.882812 C 568.109375 156.152344 571.136719 153.125 574.867188 153.125 C 578.597656 153.125 581.621094 156.152344 581.621094 159.882812 "/>
<path fill-rule="nonzero" fill="rgb(18.431373%, 30.980392%, 30.980392%)" fill-opacity="1" stroke-width="0.708661" stroke-linecap="round" stroke-linejoin="round" stroke="rgb(18.431373%, 30.980392%, 30.980392%)" stroke-opacity="1" stroke-miterlimit="10" d="M 479.4375 276.320312 C 479.4375 280.050781 476.410156 283.078125 472.679688 283.078125 C 468.949219 283.078125 465.925781 280.050781 465.925781 276.320312 C 465.925781 272.589844 468.949219 269.5625 472.679688 269.5625 C 476.410156 269.5625 479.4375 272.589844 479.4375 276.320312 "/>
<path fill-rule="nonzero" fill="rgb(18.431373%, 30.980392%, 30.980392%)" fill-opacity="1" stroke-width="0.708661" stroke-linecap="round" stroke-linejoin="round" stroke="rgb(18.431373%, 30.980392%, 30.980392%)" stroke-opacity="1" stroke-miterlimit="10" d="M 393.773438 243.597656 C 393.773438 247.332031 390.75 250.355469 387.019531 250.355469 C 383.289062 250.355469 380.261719 247.332031 380.261719 243.597656 C 380.261719 239.867188 383.289062 236.84375 387.019531 236.84375 C 390.75 236.84375 393.773438 239.867188 393.773438 243.597656 "/>
<path fill-rule="nonzero" fill="rgb(18.431373%, 30.980392%, 30.980392%)" fill-opacity="1" stroke-width="0.708661" stroke-linecap="round" stroke-linejoin="round" stroke="rgb(18.431373%, 30.980392%, 30.980392%)" stroke-opacity="1" stroke-miterlimit="10" d="M 480.636719 209.039062 C 480.636719 212.769531 477.609375 215.796875 473.878906 215.796875 C 470.148438 215.796875 467.121094 212.769531 467.121094 209.039062 C 467.121094 205.308594 470.148438 202.285156 473.878906 202.285156 C 477.609375 202.285156 480.636719 205.308594 480.636719 209.039062 "/>
<path fill-rule="nonzero" fill="rgb(18.431373%, 30.980392%, 30.980392%)" fill-opacity="1" stroke-width="0.708661" stroke-linecap="round" stroke-linejoin="round" stroke="rgb(18.431373%, 30.980392%, 30.980392%)" stroke-opacity="1" stroke-miterlimit="10" d="M 511.210938 168.097656 C 511.210938 171.828125 508.183594 174.851562 504.453125 174.851562 C 500.722656 174.851562 497.699219 171.828125 497.699219 168.097656 C 497.699219 164.363281 500.722656 161.339844 504.453125 161.339844 C 508.183594 161.339844 511.210938 164.363281 511.210938 168.097656 "/>
<path fill-rule="nonzero" fill="rgb(18.431373%, 30.980392%, 30.980392%)" fill-opacity="1" stroke-width="0.708661" stroke-linecap="round" stroke-linejoin="round" stroke="rgb(18.431373%, 30.980392%, 30.980392%)" stroke-opacity="1" stroke-miterlimit="10" d="M 555.632812 279.125 C 555.632812 282.855469 552.605469 285.878906 548.875 285.878906 C 545.144531 285.878906 542.117188 282.855469 542.117188 279.125 C 542.117188 275.390625 545.144531 272.367188 548.875 272.367188 C 552.605469 272.367188 555.632812 275.390625 555.632812 279.125 "/>
<path fill-rule="nonzero" fill="rgb(18.431373%, 30.980392%, 30.980392%)" fill-opacity="1" stroke-width="0.708661" stroke-linecap="round" stroke-linejoin="round" stroke="rgb(18.431373%, 30.980392%, 30.980392%)" stroke-opacity="1" stroke-miterlimit="10" d="M 331.941406 273.042969 C 331.941406 276.773438 328.917969 279.800781 325.1875 279.800781 C 321.453125 279.800781 318.429688 276.773438 318.429688 273.042969 C 318.429688 269.3125 321.453125 266.285156 325.1875 266.285156 C 328.917969 266.285156 331.941406 269.3125 331.941406 273.042969 "/>
<path fill-rule="nonzero" fill="rgb(18.431373%, 30.980392%, 30.980392%)" fill-opacity="1" stroke-width="0.708661" stroke-linecap="round" stroke-linejoin="round" stroke="rgb(18.431373%, 30.980392%, 30.980392%)" stroke-opacity="1" stroke-miterlimit="10" d="M 341.550781 309.6875 C 341.550781 313.421875 338.527344 316.445312 334.796875 316.445312 C 331.0625 316.445312 328.039062 313.421875 328.039062 309.6875 C 328.039062 305.957031 331.0625 302.933594 334.796875 302.933594 C 338.527344 302.933594 341.550781 305.957031 341.550781 309.6875 "/>
<path fill-rule="nonzero" fill="rgb(18.431373%, 30.980392%, 30.980392%)" fill-opacity="1" stroke-width="0.708661" stroke-linecap="round" stroke-linejoin="round" stroke="rgb(18.431373%, 30.980392%, 30.980392%)" stroke-opacity="1" stroke-miterlimit="10" d="M 360.597656 314.03125 C 360.597656 317.765625 357.570312 320.789062 353.839844 320.789062 C 350.109375 320.789062 347.082031 317.765625 347.082031 314.03125 C 347.082031 310.300781 350.109375 307.277344 353.839844 307.277344 C 357.570312 307.277344 360.597656 310.300781 360.597656 314.03125 "/>
<path fill-rule="nonzero" fill="rgb(18.431373%, 30.980392%, 30.980392%)" fill-opacity="1" stroke-width="0.708661" stroke-linecap="round" stroke-linejoin="round" stroke="rgb(18.431373%, 30.980392%, 30.980392%)" stroke-opacity="1" stroke-miterlimit="10" d="M 242.738281 265.765625 C 242.738281 269.496094 239.710938 272.523438 235.980469 272.523438 C 232.25 272.523438 229.222656 269.496094 229.222656 265.765625 C 229.222656 262.035156 232.25 259.011719 235.980469 259.011719 C 239.710938 259.011719 242.738281 262.035156 242.738281 265.765625 "/>
<path fill-rule="nonzero" fill="rgb(18.431373%, 30.980392%, 30.980392%)" fill-opacity="1" stroke-width="0.708661" stroke-linecap="round" stroke-linejoin="round" stroke="rgb(18.431373%, 30.980392%, 30.980392%)" stroke-opacity="1" stroke-miterlimit="10" d="M 467.671875 151.871094 C 467.671875 155.601562 464.648438 158.625 460.917969 158.625 C 457.183594 158.625 454.160156 155.601562 454.160156 151.871094 C 454.160156 148.136719 457.183594 145.113281 460.917969 145.113281 C 464.648438 145.113281 467.671875 148.136719 467.671875 151.871094 "/>
<path fill-rule="nonzero" fill="rgb(18.431373%, 30.980392%, 30.980392%)" fill-opacity="1" stroke-width="0.708661" stroke-linecap="round" stroke-linejoin="round" stroke="rgb(18.431373%, 30.980392%, 30.980392%)" stroke-opacity="1" stroke-miterlimit="10" d="M 475.1875 248.386719 C 475.1875 252.117188 472.164062 255.140625 468.433594 255.140625 C 464.703125 255.140625 461.675781 252.117188 461.675781 248.386719 C 461.675781 244.65625 464.703125 241.628906 468.433594 241.628906 C 472.164062 241.628906 475.1875 244.65625 475.1875 248.386719 "/>
<path fill-rule="nonzero" fill="rgb(18.431373%, 30.980392%, 30.980392%)" fill-opacity="1" stroke-width="0.708661" stroke-linecap="round" stroke-linejoin="round" stroke="rgb(18.431373%, 30.980392%, 30.980392%)" stroke-opacity="1" stroke-miterlimit="10" d="M 621.328125 229.726562 C 621.328125 233.457031 618.304688 236.480469 614.574219 236.480469 C 610.839844 236.480469 607.816406 233.457031 607.816406 229.726562 C 607.816406 225.992188 610.839844 222.96875 614.574219 222.96875 C 618.304688 222.96875 621.328125 225.992188 621.328125 229.726562 "/>
<path fill-rule="nonzero" fill="rgb(18.431373%, 30.980392%, 30.980392%)" fill-opacity="1" stroke-width="0.708661" stroke-linecap="round" stroke-linejoin="round" stroke="rgb(18.431373%, 30.980392%, 30.980392%)" stroke-opacity="1" stroke-miterlimit="10" d="M 313.070312 271.699219 C 313.070312 275.429688 310.046875 278.453125 306.316406 278.453125 C 302.582031 278.453125 299.558594 275.429688 299.558594 271.699219 C 299.558594 267.964844 302.582031 264.941406 306.316406 264.941406 C 310.046875 264.941406 313.070312 267.964844 313.070312 271.699219 "/>
<path fill-rule="nonzero" fill="rgb(18.431373%, 30.980392%, 30.980392%)" fill-opacity="1" stroke-width="0.708661" stroke-linecap="round" stroke-linejoin="round" stroke="rgb(18.431373%, 30.980392%, 30.980392%)" stroke-opacity="1" stroke-miterlimit="10" d="M 239.515625 371.433594 C 239.515625 375.167969 236.492188 378.191406 232.761719 378.191406 C 229.027344 378.191406 226.003906 375.167969 226.003906 371.433594 C 226.003906 367.703125 229.027344 364.679688 232.761719 364.679688 C 236.492188 364.679688 239.515625 367.703125 239.515625 371.433594 "/>
<path fill-rule="nonzero" fill="rgb(18.431373%, 30.980392%, 30.980392%)" fill-opacity="1" stroke-width="0.708661" stroke-linecap="round" stroke-linejoin="round" stroke="rgb(18.431373%, 30.980392%, 30.980392%)" stroke-opacity="1" stroke-miterlimit="10" d="M 548.179688 241.945312 C 548.179688 245.675781 545.15625 248.699219 541.425781 248.699219 C 537.695312 248.699219 534.667969 245.675781 534.667969 241.945312 C 534.667969 238.210938 537.695312 235.1875 541.425781 235.1875 C 545.15625 235.1875 548.179688 238.210938 548.179688 241.945312 "/>
<path fill-rule="nonzero" fill="rgb(18.431373%, 30.980392%, 30.980392%)" fill-opacity="1" stroke-width="0.708661" stroke-linecap="round" stroke-linejoin="round" stroke="rgb(18.431373%, 30.980392%, 30.980392%)" stroke-opacity="1" stroke-miterlimit="10" d="M 473.703125 319.152344 C 473.703125 322.882812 470.679688 325.910156 466.945312 325.910156 C 463.214844 325.910156 460.191406 322.882812 460.191406 319.152344 C 460.191406 315.421875 463.214844 312.394531 466.945312 312.394531 C 470.679688 312.394531 473.703125 315.421875 473.703125 319.152344 "/>
<path fill-rule="nonzero" fill="rgb(18.431373%, 30.980392%, 30.980392%)" fill-opacity="1" stroke-width="0.708661" stroke-linecap="round" stroke-linejoin="round" stroke="rgb(18.431373%, 30.980392%, 30.980392%)" stroke-opacity="1" stroke-miterlimit="10" d="M 303.601562 348.976562 C 303.601562 352.707031 300.574219 355.734375 296.84375 355.734375 C 293.113281 355.734375 290.089844 352.707031 290.089844 348.976562 C 290.089844 345.246094 293.113281 342.222656 296.84375 342.222656 C 300.574219 342.222656 303.601562 345.246094 303.601562 348.976562 "/>
<path fill-rule="nonzero" fill="rgb(18.431373%, 30.980392%, 30.980392%)" fill-opacity="1" stroke-width="0.708661" stroke-linecap="round" stroke-linejoin="round" stroke="rgb(18.431373%, 30.980392%, 30.980392%)" stroke-opacity="1" stroke-miterlimit="10" d="M 457.496094 277.472656 C 457.496094 281.203125 454.472656 284.226562 450.742188 284.226562 C 447.007812 284.226562 443.984375 281.203125 443.984375 277.472656 C 443.984375 273.738281 447.007812 270.714844 450.742188 270.714844 C 454.472656 270.714844 457.496094 273.738281 457.496094 277.472656 "/>
<path fill-rule="nonzero" fill="rgb(18.431373%, 30.980392%, 30.980392%)" fill-opacity="1" stroke-width="0.708661" stroke-linecap="round" stroke-linejoin="round" stroke="rgb(18.431373%, 30.980392%, 30.980392%)" stroke-opacity="1" stroke-miterlimit="10" d="M 534.953125 124.988281 C 534.953125 128.722656 531.925781 131.746094 528.195312 131.746094 C 524.464844 131.746094 521.4375 128.722656 521.4375 124.988281 C 521.4375 121.257812 524.464844 118.234375 528.195312 118.234375 C 531.925781 118.234375 534.953125 121.257812 534.953125 124.988281 "/>
<path fill-rule="nonzero" fill="rgb(18.431373%, 30.980392%, 30.980392%)" fill-opacity="1" stroke-width="0.708661" stroke-linecap="round" stroke-linejoin="round" stroke="rgb(18.431373%, 30.980392%, 30.980392%)" stroke-opacity="1" stroke-miterlimit="10" d="M 312.917969 186.757812 C 312.917969 190.488281 309.890625 193.515625 306.160156 193.515625 C 302.429688 193.515625 299.402344 190.488281 299.402344 186.757812 C 299.402344 183.027344 302.429688 180.003906 306.160156 180.003906 C 309.890625 180.003906 312.917969 183.027344 312.917969 186.757812 "/>
<path fill-rule="nonzero" fill="rgb(18.431373%, 30.980392%, 30.980392%)" fill-opacity="1" stroke-width="0.708661" stroke-linecap="round" stroke-linejoin="round" stroke="rgb(18.431373%, 30.980392%, 30.980392%)" stroke-opacity="1" stroke-miterlimit="10" d="M 596.15625 190.277344 C 596.15625 194.007812 593.132812 197.03125 589.402344 197.03125 C 585.667969 197.03125 582.644531 194.007812 582.644531 190.277344 C 582.644531 186.546875 585.667969 183.519531 589.402344 183.519531 C 593.132812 183.519531 596.15625 186.546875 596.15625 190.277344 "/>
<path fill-rule="nonzero" fill="rgb(18.431373%, 30.980392%, 30.980392%)" fill-opacity="1" stroke-width="0.708661" stroke-linecap="round" stroke-linejoin="round" stroke="rgb(18.431373%, 30.980392%, 30.980392%)" stroke-opacity="1" stroke-miterlimit="10" d="M 434.898438 278.316406 C 434.898438 282.046875 431.875 285.070312 428.140625 285.070312 C 424.410156 285.070312 421.386719 282.046875 421.386719 278.316406 C 421.386719 274.585938 424.410156 271.558594 428.140625 271.558594 C 431.875 271.558594 434.898438 274.585938 434.898438 278.316406 "/>
<path fill-rule="nonzero" fill="rgb(18.431373%, 30.980392%, 30.980392%)" fill-opacity="1" stroke-width="0.708661" stroke-linecap="round" stroke-linejoin="round" stroke="rgb(18.431373%, 30.980392%, 30.980392%)" stroke-opacity="1" stroke-miterlimit="10" d="M 46.964844 443.792969 C 46.964844 447.523438 43.941406 450.546875 40.207031 450.546875 C 36.476562 450.546875 33.453125 447.523438 33.453125 443.792969 C 33.453125 440.0625 36.476562 437.035156 40.207031 437.035156 C 43.941406 437.035156 46.964844 440.0625 46.964844 443.792969 "/>
<path fill-rule="nonzero" fill="rgb(18.431373%, 30.980392%, 30.980392%)" fill-opacity="1" stroke-width="0.708661" stroke-linecap="round" stroke-linejoin="round" stroke="rgb(18.431373%, 30.980392%, 30.980392%)" stroke-opacity="1" stroke-miterlimit="10" d="M 80.335938 428.730469 C 80.335938 432.460938 77.3125 435.484375 73.582031 435.484375 C 69.847656 435.484375 66.824219 432.460938 66.824219 428.730469 C 66.824219 425 69.847656 421.972656 73.582031 421.972656 C 77.3125 421.972656 80.335938 425 80.335938 428.730469 "/>
<path fill-rule="nonzero" fill="rgb(18.431373%, 30.980392%, 30.980392%)" fill-opacity="1" stroke-width="0.708661" stroke-linecap="round" stroke-linejoin="round" stroke="rgb(18.431373%, 30.980392%, 30.980392%)" stroke-opacity="1" stroke-miterlimit="10" d="M 444.851562 204.792969 C 444.851562 208.523438 441.828125 211.550781 438.097656 211.550781 C 434.363281 211.550781 431.339844 208.523438 431.339844 204.792969 C 431.339844 201.0625 434.363281 198.039062 438.097656 198.039062 C 441.828125 198.039062 444.851562 201.0625 444.851562 204.792969 "/>
<path fill-rule="nonzero" fill="rgb(18.431373%, 30.980392%, 30.980392%)" fill-opacity="1" stroke-width="0.708661" stroke-linecap="round" stroke-linejoin="round" stroke="rgb(18.431373%, 30.980392%, 30.980392%)" stroke-opacity="1" stroke-miterlimit="10" d="M 298.183594 227.523438 C 298.183594 231.257812 295.160156 234.28125 291.429688 234.28125 C 287.699219 234.28125 284.671875 231.257812 284.671875 227.523438 C 284.671875 223.792969 287.699219 220.769531 291.429688 220.769531 C 295.160156 220.769531 298.183594 223.792969 298.183594 227.523438 "/>
<path fill-rule="nonzero" fill="rgb(18.431373%, 30.980392%, 30.980392%)" fill-opacity="1" stroke-width="0.708661" stroke-linecap="round" stroke-linejoin="round" stroke="rgb(18.431373%, 30.980392%, 30.980392%)" stroke-opacity="1" stroke-miterlimit="10" d="M 340.242188 318.367188 C 340.242188 322.097656 337.21875 325.121094 333.488281 325.121094 C 329.757812 325.121094 326.730469 322.097656 326.730469 318.367188 C 326.730469 314.632812 329.757812 311.609375 333.488281 311.609375 C 337.21875 311.609375 340.242188 314.632812 340.242188 318.367188 "/>
<path fill-rule="nonzero" fill="rgb(18.431373%, 30.980392%, 30.980392%)" fill-opacity="1" stroke-width="0.708661" stroke-linecap="round" stroke-linejoin="round" stroke="rgb(18.431373%, 30.980392%, 30.980392%)" stroke-opacity="1" stroke-miterlimit="10" d="M 415.660156 174.472656 C 415.660156 178.203125 412.636719 181.226562 408.90625 181.226562 C 405.175781 181.226562 402.148438 178.203125 402.148438 174.472656 C 402.148438 170.738281 405.175781 167.714844 408.90625 167.714844 C 412.636719 167.714844 415.660156 170.738281 415.660156 174.472656 "/>
<path fill-rule="nonzero" fill="rgb(18.431373%, 30.980392%, 30.980392%)" fill-opacity="1" stroke-width="0.708661" stroke-linecap="round" stroke-linejoin="round" stroke="rgb(18.431373%, 30.980392%, 30.980392%)" stroke-opacity="1" stroke-miterlimit="10" d="M 379.863281 273.265625 C 379.863281 276.996094 376.839844 280.023438 373.109375 280.023438 C 369.378906 280.023438 366.351562 276.996094 366.351562 273.265625 C 366.351562 269.535156 369.378906 266.511719 373.109375 266.511719 C 376.839844 266.511719 379.863281 269.535156 379.863281 273.265625 "/>
<path fill-rule="nonzero" fill="rgb(18.431373%, 30.980392%, 30.980392%)" fill-opacity="1" stroke-width="0.708661" stroke-linecap="round" stroke-linejoin="round" stroke="rgb(18.431373%, 30.980392%, 30.980392%)" stroke-opacity="1" stroke-miterlimit="10" d="M 287.8125 396.257812 C 287.8125 399.988281 284.785156 403.011719 281.054688 403.011719 C 277.324219 403.011719 274.300781 399.988281 274.300781 396.257812 C 274.300781 392.523438 277.324219 389.5 281.054688 389.5 C 284.785156 389.5 287.8125 392.523438 287.8125 396.257812 "/>
<path fill-rule="nonzero" fill="rgb(18.431373%, 30.980392%, 30.980392%)" fill-opacity="1" stroke-width="0.708661" stroke-linecap="round" stroke-linejoin="round" stroke="rgb(18.431373%, 30.980392%, 30.980392%)" stroke-opacity="1" stroke-miterlimit="10" d="M 247.636719 326.199219 C 247.636719 329.929688 244.609375 332.957031 240.878906 332.957031 C 237.148438 332.957031 234.125 329.929688 234.125 326.199219 C 234.125 322.46875 237.148438 319.445312 240.878906 319.445312 C 244.609375 319.445312 247.636719 322.46875 247.636719 326.199219 "/>
<path fill-rule="nonzero" fill="rgb(18.431373%, 30.980392%, 30.980392%)" fill-opacity="1" stroke-width="0.708661" stroke-linecap="round" stroke-linejoin="round" stroke="rgb(18.431373%, 30.980392%, 30.980392%)" stroke-opacity="1" stroke-miterlimit="10" d="M 350.023438 264.1875 C 350.023438 267.921875 347 270.945312 343.269531 270.945312 C 339.535156 270.945312 336.511719 267.921875 336.511719 264.1875 C 336.511719 260.457031 339.535156 257.433594 343.269531 257.433594 C 347 257.433594 350.023438 260.457031 350.023438 264.1875 "/>
<path fill-rule="nonzero" fill="rgb(18.431373%, 30.980392%, 30.980392%)" fill-opacity="1" stroke-width="0.708661" stroke-linecap="round" stroke-linejoin="round" stroke="rgb(18.431373%, 30.980392%, 30.980392%)" stroke-opacity="1" stroke-miterlimit="10" d="M 649.21875 236.082031 C 649.21875 239.8125 646.195312 242.835938 642.464844 242.835938 C 638.730469 242.835938 635.707031 239.8125 635.707031 236.082031 C 635.707031 232.351562 638.730469 229.324219 642.464844 229.324219 C 646.195312 229.324219 649.21875 232.351562 649.21875 236.082031 "/>
<path fill-rule="nonzero" fill="rgb(18.431373%, 30.980392%, 30.980392%)" fill-opacity="1" stroke-width="0.708661" stroke-linecap="round" stroke-linejoin="round" stroke="rgb(18.431373%, 30.980392%, 30.980392%)" stroke-opacity="1" stroke-miterlimit="10" d="M 588.902344 247.128906 C 588.902344 250.859375 585.875 253.886719 582.144531 253.886719 C 578.414062 253.886719 575.386719 250.859375 575.386719 247.128906 C 575.386719 243.398438 578.414062 240.375 582.144531 240.375 C 585.875 240.375 588.902344 243.398438 588.902344 247.128906 "/>
<path fill-rule="nonzero" fill="rgb(18.431373%, 30.980392%, 30.980392%)" fill-opacity="1" stroke-width="0.708661" stroke-linecap="round" stroke-linejoin="round" stroke="rgb(18.431373%, 30.980392%, 30.980392%)" stroke-opacity="1" stroke-miterlimit="10" d="M 388.355469 186.625 C 388.355469 190.355469 385.332031 193.378906 381.601562 193.378906 C 377.867188 193.378906 374.84375 190.355469 374.84375 186.625 C 374.84375 182.894531 377.867188 179.867188 381.601562 179.867188 C 385.332031 179.867188 388.355469 182.894531 388.355469 186.625 "/>
<path fill-rule="nonzero" fill="rgb(18.431373%, 30.980392%, 30.980392%)" fill-opacity="1" stroke-width="0.708661" stroke-linecap="round" stroke-linejoin="round" stroke="rgb(18.431373%, 30.980392%, 30.980392%)" stroke-opacity="1" stroke-miterlimit="10" d="M 348.734375 195.164062 C 348.734375 198.894531 345.710938 201.921875 341.980469 201.921875 C 338.246094 201.921875 335.222656 198.894531 335.222656 195.164062 C 335.222656 191.433594 338.246094 188.40625 341.980469 188.40625 C 345.710938 188.40625 348.734375 191.433594 348.734375 195.164062 "/>
<path fill-rule="nonzero" fill="rgb(18.431373%, 30.980392%, 30.980392%)" fill-opacity="1" stroke-width="0.708661" stroke-linecap="round" stroke-linejoin="round" stroke="rgb(18.431373%, 30.980392%, 30.980392%)" stroke-opacity="1" stroke-miterlimit="10" d="M 119.78125 226.855469 C 119.78125 230.585938 116.757812 233.613281 113.027344 233.613281 C 109.292969 233.613281 106.269531 230.585938 106.269531 226.855469 C 106.269531 223.125 109.292969 220.097656 113.027344 220.097656 C 116.757812 220.097656 119.78125 223.125 119.78125 226.855469 "/>
<path fill-rule="nonzero" fill="rgb(18.431373%, 30.980392%, 30.980392%)" fill-opacity="1" stroke-width="0.708661" stroke-linecap="round" stroke-linejoin="round" stroke="rgb(18.431373%, 30.980392%, 30.980392%)" stroke-opacity="1" stroke-miterlimit="10" d="M 361 354.5625 C 361 358.296875 357.976562 361.320312 354.246094 361.320312 C 350.511719 361.320312 347.488281 358.296875 347.488281 354.5625 C 347.488281 350.832031 350.511719 347.808594 354.246094 347.808594 C 357.976562 347.808594 361 350.832031 361 354.5625 "/>
<path fill-rule="nonzero" fill="rgb(18.431373%, 30.980392%, 30.980392%)" fill-opacity="1" stroke-width="0.708661" stroke-linecap="round" stroke-linejoin="round" stroke="rgb(18.431373%, 30.980392%, 30.980392%)" stroke-opacity="1" stroke-miterlimit="10" d="M 474.558594 237.117188 C 474.558594 240.847656 471.53125 243.871094 467.800781 243.871094 C 464.070312 243.871094 461.046875 240.847656 461.046875 237.117188 C 461.046875 233.386719 464.070312 230.359375 467.800781 230.359375 C 471.53125 230.359375 474.558594 233.386719 474.558594 237.117188 "/>
<path fill-rule="nonzero" fill="rgb(18.431373%, 30.980392%, 30.980392%)" fill-opacity="1" stroke-width="0.708661" stroke-linecap="round" stroke-linejoin="round" stroke="rgb(18.431373%, 30.980392%, 30.980392%)" stroke-opacity="1" stroke-miterlimit="10" d="M 203.921875 271.097656 C 203.921875 274.828125 200.898438 277.855469 197.167969 277.855469 C 193.4375 277.855469 190.410156 274.828125 190.410156 271.097656 C 190.410156 267.367188 193.4375 264.339844 197.167969 264.339844 C 200.898438 264.339844 203.921875 267.367188 203.921875 271.097656 "/>
<path fill-rule="nonzero" fill="rgb(18.431373%, 30.980392%, 30.980392%)" fill-opacity="1" stroke-width="0.708661" stroke-linecap="round" stroke-linejoin="round" stroke="rgb(18.431373%, 30.980392%, 30.980392%)" stroke-opacity="1" stroke-miterlimit="10" d="M 499.769531 169.402344 C 499.769531 173.132812 496.742188 176.15625 493.011719 176.15625 C 489.28125 176.15625 486.257812 173.132812 486.257812 169.402344 C 486.257812 165.671875 489.28125 162.644531 493.011719 162.644531 C 496.742188 162.644531 499.769531 165.671875 499.769531 169.402344 "/>
<path fill-rule="nonzero" fill="rgb(18.431373%, 30.980392%, 30.980392%)" fill-opacity="1" stroke-width="0.708661" stroke-linecap="round" stroke-linejoin="round" stroke="rgb(18.431373%, 30.980392%, 30.980392%)" stroke-opacity="1" stroke-miterlimit="10" d="M 508.410156 234.363281 C 508.410156 238.09375 505.386719 241.121094 501.652344 241.121094 C 497.921875 241.121094 494.898438 238.09375 494.898438 234.363281 C 494.898438 230.632812 497.921875 227.605469 501.652344 227.605469 C 505.386719 227.605469 508.410156 230.632812 508.410156 234.363281 "/>
<path fill-rule="nonzero" fill="rgb(18.431373%, 30.980392%, 30.980392%)" fill-opacity="1" stroke-width="0.708661" stroke-linecap="round" stroke-linejoin="round" stroke="rgb(18.431373%, 30.980392%, 30.980392%)" stroke-opacity="1" stroke-miterlimit="10" d="M 212.777344 213.796875 C 212.777344 217.527344 209.753906 220.550781 206.019531 220.550781 C 202.289062 220.550781 199.265625 217.527344 199.265625 213.796875 C 199.265625 210.0625 202.289062 207.039062 206.019531 207.039062 C 209.753906 207.039062 212.777344 210.0625 212.777344 213.796875 "/>
<path fill-rule="nonzero" fill="rgb(18.431373%, 30.980392%, 30.980392%)" fill-opacity="1" stroke-width="0.708661" stroke-linecap="round" stroke-linejoin="round" stroke="rgb(18.431373%, 30.980392%, 30.980392%)" stroke-opacity="1" stroke-miterlimit="10" d="M 540.757812 32.742188 C 540.757812 36.472656 537.734375 39.496094 534.003906 39.496094 C 530.273438 39.496094 527.246094 36.472656 527.246094 32.742188 C 527.246094 29.007812 530.273438 25.984375 534.003906 25.984375 C 537.734375 25.984375 540.757812 29.007812 540.757812 32.742188 "/>
<path fill-rule="nonzero" fill="rgb(18.431373%, 30.980392%, 30.980392%)" fill-opacity="1" stroke-width="0.708661" stroke-linecap="round" stroke-linejoin="round" stroke="rgb(18.431373%, 30.980392%, 30.980392%)" stroke-opacity="1" stroke-miterlimit="10" d="M 330.914062 289.894531 C 330.914062 293.625 327.890625 296.648438 324.160156 296.648438 C 320.429688 296.648438 317.402344 293.625 317.402344 289.894531 C 317.402344 286.160156 320.429688 283.136719 324.160156 283.136719 C 327.890625 283.136719 330.914062 286.160156 330.914062 289.894531 "/>
<path fill-rule="nonzero" fill="rgb(18.431373%, 30.980392%, 30.980392%)" fill-opacity="1" stroke-width="0.708661" stroke-linecap="round" stroke-linejoin="round" stroke="rgb(18.431373%, 30.980392%, 30.980392%)" stroke-opacity="1" stroke-miterlimit="10" d="M 307.980469 375.222656 C 307.980469 378.957031 304.957031 381.980469 301.222656 381.980469 C 297.492188 381.980469 294.46875 378.957031 294.46875 375.222656 C 294.46875 371.492188 297.492188 368.46875 301.222656 368.46875 C 304.957031 368.46875 307.980469 371.492188 307.980469 375.222656 "/>
<path fill-rule="nonzero" fill="rgb(18.431373%, 30.980392%, 30.980392%)" fill-opacity="1" stroke-width="0.708661" stroke-linecap="round" stroke-linejoin="round" stroke="rgb(18.431373%, 30.980392%, 30.980392%)" stroke-opacity="1" stroke-miterlimit="10" d="M 509.265625 221.851562 C 509.265625 225.582031 506.242188 228.609375 502.511719 228.609375 C 498.777344 228.609375 495.753906 225.582031 495.753906 221.851562 C 495.753906 218.121094 498.777344 215.09375 502.511719 215.09375 C 506.242188 215.09375 509.265625 218.121094 509.265625 221.851562 "/>
<path fill-rule="nonzero" fill="rgb(18.431373%, 30.980392%, 30.980392%)" fill-opacity="1" stroke-width="0.708661" stroke-linecap="round" stroke-linejoin="round" stroke="rgb(18.431373%, 30.980392%, 30.980392%)" stroke-opacity="1" stroke-miterlimit="10" d="M 434.371094 366.945312 C 434.371094 370.675781 431.347656 373.699219 427.613281 373.699219 C 423.882812 373.699219 420.859375 370.675781 420.859375 366.945312 C 420.859375 363.210938 423.882812 360.1875 427.613281 360.1875 C 431.347656 360.1875 434.371094 363.210938 434.371094 366.945312 "/>
<path fill-rule="nonzero" fill="rgb(18.431373%, 30.980392%, 30.980392%)" fill-opacity="1" stroke-width="0.708661" stroke-linecap="round" stroke-linejoin="round" stroke="rgb(18.431373%, 30.980392%, 30.980392%)" stroke-opacity="1" stroke-miterlimit="10" d="M 321.832031 233.984375 C 321.832031 237.71875 318.808594 240.742188 315.078125 240.742188 C 311.34375 240.742188 308.320312 237.71875 308.320312 233.984375 C 308.320312 230.253906 311.34375 227.230469 315.078125 227.230469 C 318.808594 227.230469 321.832031 230.253906 321.832031 233.984375 "/>
<path fill-rule="nonzero" fill="rgb(18.431373%, 30.980392%, 30.980392%)" fill-opacity="1" stroke-width="0.708661" stroke-linecap="round" stroke-linejoin="round" stroke="rgb(18.431373%, 30.980392%, 30.980392%)" stroke-opacity="1" stroke-miterlimit="10" d="M 200.277344 404.988281 C 200.277344 408.722656 197.25 411.746094 193.519531 411.746094 C 189.789062 411.746094 186.761719 408.722656 186.761719 404.988281 C 186.761719 401.257812 189.789062 398.234375 193.519531 398.234375 C 197.25 398.234375 200.277344 401.257812 200.277344 404.988281 "/>
<path fill-rule="nonzero" fill="rgb(18.431373%, 30.980392%, 30.980392%)" fill-opacity="1" stroke-width="0.708661" stroke-linecap="round" stroke-linejoin="round" stroke="rgb(18.431373%, 30.980392%, 30.980392%)" stroke-opacity="1" stroke-miterlimit="10" d="M 517.582031 157.546875 C 517.582031 161.277344 514.558594 164.300781 510.824219 164.300781 C 507.09375 164.300781 504.070312 161.277344 504.070312 157.546875 C 504.070312 153.816406 507.09375 150.789062 510.824219 150.789062 C 514.558594 150.789062 517.582031 153.816406 517.582031 157.546875 "/>
<path fill-rule="nonzero" fill="rgb(18.431373%, 30.980392%, 30.980392%)" fill-opacity="1" stroke-width="0.708661" stroke-linecap="round" stroke-linejoin="round" stroke="rgb(18.431373%, 30.980392%, 30.980392%)" stroke-opacity="1" stroke-miterlimit="10" d="M 213.75 348.464844 C 213.75 352.195312 210.726562 355.222656 206.996094 355.222656 C 203.261719 355.222656 200.238281 352.195312 200.238281 348.464844 C 200.238281 344.734375 203.261719 341.707031 206.996094 341.707031 C 210.726562 341.707031 213.75 344.734375 213.75 348.464844 "/>
<path fill-rule="nonzero" fill="rgb(18.431373%, 30.980392%, 30.980392%)" fill-opacity="1" stroke-width="0.708661" stroke-linecap="round" stroke-linejoin="round" stroke="rgb(18.431373%, 30.980392%, 30.980392%)" stroke-opacity="1" stroke-miterlimit="10" d="M 94.253906 368.136719 C 94.253906 371.867188 91.230469 374.890625 87.496094 374.890625 C 83.765625 374.890625 80.742188 371.867188 80.742188 368.136719 C 80.742188 364.402344 83.765625 361.378906 87.496094 361.378906 C 91.230469 361.378906 94.253906 364.402344 94.253906 368.136719 "/>
<path fill-rule="nonzero" fill="rgb(18.431373%, 30.980392%, 30.980392%)" fill-opacity="1" stroke-width="0.708661" stroke-linecap="round" stroke-linejoin="round" stroke="rgb(18.431373%, 30.980392%, 30.980392%)" stroke-opacity="1" stroke-miterlimit="10" d="M 523.066406 283.820312 C 523.066406 287.550781 520.039062 290.578125 516.308594 290.578125 C 512.578125 290.578125 509.550781 287.550781 509.550781 283.820312 C 509.550781 280.089844 512.578125 277.0625 516.308594 277.0625 C 520.039062 277.0625 523.066406 280.089844 523.066406 283.820312 "/>
<path fill-rule="nonzero" fill="rgb(18.431373%, 30.980392%, 30.980392%)" fill-opacity="1" stroke-width="0.708661" stroke-linecap="round" stroke-linejoin="round" stroke="rgb(18.431373%, 30.980392%, 30.980392%)" stroke-opacity="1" stroke-miterlimit="10" d="M 507.84375 197.464844 C 507.84375 201.195312 504.820312 204.21875 501.089844 204.21875 C 497.355469 204.21875 494.332031 201.195312 494.332031 197.464844 C 494.332031 193.734375 497.355469 190.707031 501.089844 190.707031 C 504.820312 190.707031 507.84375 193.734375 507.84375 197.464844 "/>
<path fill-rule="nonzero" fill="rgb(18.431373%, 30.980392%, 30.980392%)" fill-opacity="1" stroke-width="0.708661" stroke-linecap="round" stroke-linejoin="round" stroke="rgb(18.431373%, 30.980392%, 30.980392%)" stroke-opacity="1" stroke-miterlimit="10" d="M 463.558594 258.09375 C 463.558594 261.824219 460.535156 264.851562 456.804688 264.851562 C 453.074219 264.851562 450.046875 261.824219 450.046875 258.09375 C 450.046875 254.363281 453.074219 251.335938 456.804688 251.335938 C 460.535156 251.335938 463.558594 254.363281 463.558594 258.09375 "/>
<path fill-rule="nonzero" fill="rgb(18.431373%, 30.980392%, 30.980392%)" fill-opacity="1" stroke-width="0.708661" stroke-linecap="round" stroke-linejoin="round" stroke="rgb(18.431373%, 30.980392%, 30.980392%)" stroke-opacity="1" stroke-miterlimit="10" d="M 29.988281 402.738281 C 29.988281 406.46875 26.964844 409.492188 23.234375 409.492188 C 19.503906 409.492188 16.476562 406.46875 16.476562 402.738281 C 16.476562 399.003906 19.503906 395.980469 23.234375 395.980469 C 26.964844 395.980469 29.988281 399.003906 29.988281 402.738281 "/>
<path fill-rule="nonzero" fill="rgb(18.431373%, 30.980392%, 30.980392%)" fill-opacity="1" stroke-width="0.708661" stroke-linecap="round" stroke-linejoin="round" stroke="rgb(18.431373%, 30.980392%, 30.980392%)" stroke-opacity="1" stroke-miterlimit="10" d="M 337.167969 286.984375 C 337.167969 290.714844 334.140625 293.738281 330.410156 293.738281 C 326.679688 293.738281 323.65625 290.714844 323.65625 286.984375 C 323.65625 283.25 326.679688 280.226562 330.410156 280.226562 C 334.140625 280.226562 337.167969 283.25 337.167969 286.984375 "/>
<path fill-rule="nonzero" fill="rgb(18.431373%, 30.980392%, 30.980392%)" fill-opacity="1" stroke-width="0.708661" stroke-linecap="round" stroke-linejoin="round" stroke="rgb(18.431373%, 30.980392%, 30.980392%)" stroke-opacity="1" stroke-miterlimit="10" d="M 390.808594 188 C 390.808594 191.730469 387.785156 194.753906 384.050781 194.753906 C 380.320312 194.753906 377.296875 191.730469 377.296875 188 C 377.296875 184.265625 380.320312 181.242188 384.050781 181.242188 C 387.785156 181.242188 390.808594 184.265625 390.808594 188 "/>
<path fill-rule="nonzero" fill="rgb(18.431373%, 30.980392%, 30.980392%)" fill-opacity="1" stroke-width="0.708661" stroke-linecap="round" stroke-linejoin="round" stroke="rgb(18.431373%, 30.980392%, 30.980392%)" stroke-opacity="1" stroke-miterlimit="10" d="M 556.898438 285.839844 C 556.898438 289.570312 553.875 292.597656 550.144531 292.597656 C 546.410156 292.597656 543.386719 289.570312 543.386719 285.839844 C 543.386719 282.109375 546.410156 279.085938 550.144531 279.085938 C 553.875 279.085938 556.898438 282.109375 556.898438 285.839844 "/>
<path fill-rule="nonzero" fill="rgb(18.431373%, 30.980392%, 30.980392%)" fill-opacity="1" stroke-width="0.708661" stroke-linecap="round" stroke-linejoin="round" stroke="rgb(18.431373%, 30.980392%, 30.980392%)" stroke-opacity="1" stroke-miterlimit="10" d="M 423.644531 256.488281 C 423.644531 260.21875 420.621094 263.242188 416.890625 263.242188 C 413.15625 263.242188 410.132812 260.21875 410.132812 256.488281 C 410.132812 252.757812 413.15625 249.730469 416.890625 249.730469 C 420.621094 249.730469 423.644531 252.757812 423.644531 256.488281 "/>
<path fill-rule="nonzero" fill="rgb(18.431373%, 30.980392%, 30.980392%)" fill-opacity="1" stroke-width="0.708661" stroke-linecap="round" stroke-linejoin="round" stroke="rgb(18.431373%, 30.980392%, 30.980392%)" stroke-opacity="1" stroke-miterlimit="10" d="M 187.742188 341.089844 C 187.742188 344.824219 184.71875 347.847656 180.988281 347.847656 C 177.257812 347.847656 174.230469 344.824219 174.230469 341.089844 C 174.230469 337.359375 177.257812 334.335938 180.988281 334.335938 C 184.71875 334.335938 187.742188 337.359375 187.742188 341.089844 "/>
</svg>
