<svg xmlns="http://www.w3.org/2000/svg" xmlns:xlink="http://www.w3.org/1999/xlink" x="0" y="0" width="661.9791870117188" height="356.9560241699219" style="
        width:661.9791870117188px;
        height:356.9560241699219px;
        background: transparent;
        fill: none;
">
        
        
        <svg xmlns="http://www.w3.org/2000/svg" class="role-diagram-draw-area"><g class="shapes-region" style="stroke: black; fill: none;"><g class="composite-shape axis2d" style="stroke-width: 1; stroke: rgb(0, 0, 0);"><path class="real" d=" M6,133.5 L187,133.5 M24.1,12 L24.1,147"/><path d=" M180,128.5 L187,133.5 L180,138.5"/><path d=" M19.1,19 L24.1,12 L29.1,19"/></g><g class="composite-shape"><path class="real" d=" M55,111.46 C55,109 57,107 59.46,107 C61.93,107 63.93,109 63.93,111.46 C63.93,113.93 61.93,115.93 59.46,115.93 C57,115.93 55,113.93 55,111.46 Z" style="stroke-width: 1; stroke: rgb(0, 0, 0); fill: rgb(208, 2, 27); fill-opacity: 1;"/></g><g class="composite-shape axis2d" style="stroke-width: 1; stroke: rgb(0, 0, 0);"><path class="real" d=" M216,131.5 L397,131.5 M234.1,10 L234.1,145"/><path d=" M390,126.5 L397,131.5 L390,136.5"/><path d=" M229.1,17 L234.1,10 L239.1,17"/></g><g class="composite-shape axis2d" style="stroke-width: 1; stroke: rgb(0, 0, 0);"><path class="real" d=" M410,131.5 L591,131.5 M428.1,10 L428.1,145"/><path d=" M584,126.5 L591,131.5 L584,136.5"/><path d=" M423.1,17 L428.1,10 L433.1,17"/></g><g class="composite-shape axis2d" style="stroke-width: 1; stroke: rgb(0, 0, 0);"><path class="real" d=" M5,279.5 L186,279.5 M23.1,158 L23.1,293"/><path d=" M179,274.5 L186,279.5 L179,284.5"/><path d=" M18.1,165 L23.1,158 L28.1,165"/></g><g class="composite-shape axis2d" style="stroke-width: 1; stroke: rgb(0, 0, 0);"><path class="real" d=" M222,279.5 L403,279.5 M240.1,158 L240.1,293"/><path d=" M396,274.5 L403,279.5 L396,284.5"/><path d=" M235.1,165 L240.1,158 L245.1,165"/></g><g class="composite-shape axis2d" style="stroke-width: 1; stroke: rgb(0, 0, 0);"><path class="real" d=" M415,279.5 L596,279.5 M433.1,158 L433.1,293"/><path d=" M589,274.5 L596,279.5 L589,284.5"/><path d=" M428.1,165 L433.1,158 L438.1,165"/></g><g class="composite-shape"><path class="real" d=" M75,91.46 C75,89 77,87 79.46,87 C81.93,87 83.93,89 83.93,91.46 C83.93,93.93 81.93,95.93 79.46,95.93 C77,95.93 75,93.93 75,91.46 Z" style="stroke-width: 1; stroke: rgb(0, 0, 0); fill: rgb(208, 2, 27); fill-opacity: 1;"/></g><g class="composite-shape"><path class="real" d=" M90,75.46 C90,73 92,71 94.46,71 C96.93,71 98.93,73 98.93,75.46 C98.93,77.93 96.93,79.93 94.46,79.93 C92,79.93 90,77.93 90,75.46 Z" style="stroke-width: 1; stroke: rgb(0, 0, 0); fill: rgb(208, 2, 27); fill-opacity: 1;"/></g><g class="composite-shape"><path class="real" d=" M107,58.46 C107,56 109,54 111.46,54 C113.93,54 115.93,56 115.93,58.46 C115.93,60.93 113.93,62.93 111.46,62.93 C109,62.93 107,60.93 107,58.46 Z" style="stroke-width: 1; stroke: rgb(0, 0, 0); fill: rgb(208, 2, 27); fill-opacity: 1;"/></g><g class="composite-shape"><path class="real" d=" M127,39.46 C127,37 129,35 131.46,35 C133.93,35 135.93,37 135.93,39.46 C135.93,41.93 133.93,43.93 131.46,43.93 C129,43.93 127,41.93 127,39.46 Z" style="stroke-width: 1; stroke: rgb(0, 0, 0); fill: rgb(208, 2, 27); fill-opacity: 1;"/></g><g class="composite-shape"><path class="real" d=" M282.89,40.46 C285.35,40.36 287.43,42.28 287.53,44.74 C287.62,47.2 285.71,49.28 283.24,49.38 C280.78,49.48 278.7,47.56 278.61,45.1 C278.51,42.63 280.43,40.56 282.89,40.46 Z" style="stroke-width: 1; stroke: rgb(0, 0, 0); fill: rgb(208, 2, 27); fill-opacity: 1;"/></g><g class="composite-shape"><path class="real" d=" M303.67,59.65 C306.13,59.55 308.21,61.47 308.3,63.93 C308.4,66.4 306.48,68.47 304.02,68.57 C301.56,68.67 299.48,66.75 299.38,64.29 C299.28,61.82 301.2,59.75 303.67,59.65 Z" style="stroke-width: 1; stroke: rgb(0, 0, 0); fill: rgb(208, 2, 27); fill-opacity: 1;"/></g><g class="composite-shape"><path class="real" d=" M320.25,74 C322.71,73.91 324.79,75.82 324.89,78.29 C324.98,80.75 323.06,82.83 320.6,82.93 C318.14,83.02 316.06,81.11 315.96,78.64 C315.87,76.18 317.78,74.1 320.25,74 Z" style="stroke-width: 1; stroke: rgb(0, 0, 0); fill: rgb(208, 2, 27); fill-opacity: 1;"/></g><g class="composite-shape"><path class="real" d=" M337.91,90.32 C340.37,90.22 342.45,92.14 342.55,94.6 C342.64,97.06 340.72,99.14 338.26,99.24 C335.8,99.34 333.72,97.42 333.62,94.96 C333.53,92.49 335.44,90.42 337.91,90.32 Z" style="stroke-width: 1; stroke: rgb(0, 0, 0); fill: rgb(208, 2, 27); fill-opacity: 1;"/></g><g class="composite-shape"><path class="real" d=" M357.68,109.55 C360.15,109.45 362.22,111.37 362.32,113.83 C362.42,116.3 360.5,118.37 358.04,118.47 C355.58,118.57 353.5,116.65 353.4,114.19 C353.3,111.72 355.22,109.65 357.68,109.55 Z" style="stroke-width: 1; stroke: rgb(0, 0, 0); fill: rgb(208, 2, 27); fill-opacity: 1;"/></g><g class="composite-shape"><path class="real" d=" M463,104.46 C463,102 465,100 467.46,100 C469.93,100 471.93,102 471.93,104.46 C471.93,106.93 469.93,108.93 467.46,108.93 C465,108.93 463,106.93 463,104.46 Z" style="stroke-width: 1; stroke: rgb(0, 0, 0); fill: rgb(208, 2, 27); fill-opacity: 1;"/></g><g class="composite-shape"><path class="real" d=" M489,91.46 C489,89 491,87 493.46,87 C495.93,87 497.93,89 497.93,91.46 C497.93,93.93 495.93,95.93 493.46,95.93 C491,95.93 489,93.93 489,91.46 Z" style="stroke-width: 1; stroke: rgb(0, 0, 0); fill: rgb(208, 2, 27); fill-opacity: 1;"/></g><g class="composite-shape"><path class="real" d=" M494,65.46 C494,63 496,61 498.46,61 C500.93,61 502.93,63 502.93,65.46 C502.93,67.93 500.93,69.93 498.46,69.93 C496,69.93 494,67.93 494,65.46 Z" style="stroke-width: 1; stroke: rgb(0, 0, 0); fill: rgb(208, 2, 27); fill-opacity: 1;"/></g><g class="composite-shape"><path class="real" d=" M522,66.46 C522,64 524,62 526.46,62 C528.93,62 530.93,64 530.93,66.46 C530.93,68.93 528.93,70.93 526.46,70.93 C524,70.93 522,68.93 522,66.46 Z" style="stroke-width: 1; stroke: rgb(0, 0, 0); fill: rgb(208, 2, 27); fill-opacity: 1;"/></g><g class="composite-shape"><path class="real" d=" M530,46.46 C530,44 532,42 534.46,42 C536.93,42 538.93,44 538.93,46.46 C538.93,48.93 536.93,50.93 534.46,50.93 C532,50.93 530,48.93 530,46.46 Z" style="stroke-width: 1; stroke: rgb(0, 0, 0); fill: rgb(208, 2, 27); fill-opacity: 1;"/></g><g class="composite-shape"><path class="real" d=" M61.11,187.79 C63.54,187.39 65.84,189.03 66.25,191.46 C66.65,193.89 65.01,196.2 62.58,196.6 C60.15,197.01 57.85,195.37 57.44,192.93 C57.03,190.5 58.68,188.2 61.11,187.79 Z" style="stroke-width: 1; stroke: rgb(0, 0, 0); fill: rgb(208, 2, 27); fill-opacity: 1;"/></g><g class="composite-shape"><path class="real" d=" M78.21,211.3 C80.64,210.89 82.94,212.53 83.35,214.97 C83.76,217.4 82.11,219.7 79.68,220.1 C77.25,220.51 74.95,218.87 74.54,216.44 C74.14,214.01 75.78,211.7 78.21,211.3 Z" style="stroke-width: 1; stroke: rgb(0, 0, 0); fill: rgb(208, 2, 27); fill-opacity: 1;"/></g><g class="composite-shape"><path class="real" d=" M104.68,211.95 C107.11,211.54 109.41,213.18 109.82,215.62 C110.22,218.05 108.58,220.35 106.15,220.75 C103.72,221.16 101.42,219.52 101.01,217.09 C100.61,214.65 102.25,212.35 104.68,211.95 Z" style="stroke-width: 1; stroke: rgb(0, 0, 0); fill: rgb(208, 2, 27); fill-opacity: 1;"/></g><g class="composite-shape"><path class="real" d=" M102.31,230.73 C104.74,230.32 107.04,231.97 107.44,234.4 C107.85,236.83 106.21,239.13 103.78,239.54 C101.34,239.94 99.04,238.3 98.64,235.87 C98.23,233.44 99.87,231.14 102.31,230.73 Z" style="stroke-width: 1; stroke: rgb(0, 0, 0); fill: rgb(208, 2, 27); fill-opacity: 1;"/></g><g class="composite-shape"><path class="real" d=" M125.35,240.33 C127.78,239.92 130.08,241.56 130.49,243.99 C130.89,246.43 129.25,248.73 126.82,249.13 C124.39,249.54 122.09,247.9 121.68,245.47 C121.28,243.03 122.92,240.73 125.35,240.33 Z" style="stroke-width: 1; stroke: rgb(0, 0, 0); fill: rgb(208, 2, 27); fill-opacity: 1;"/></g><g class="composite-shape"><path class="real" d=" M151.35,255.33 C153.78,254.92 156.08,256.56 156.49,258.99 C156.89,261.43 155.25,263.73 152.82,264.13 C150.39,264.54 148.09,262.9 147.68,260.47 C147.28,258.03 148.92,255.73 151.35,255.33 Z" style="stroke-width: 1; stroke: rgb(0, 0, 0); fill: rgb(208, 2, 27); fill-opacity: 1;"/></g><g class="composite-shape"><path class="real" d=" M86.35,190.33 C88.78,189.92 91.08,191.56 91.49,193.99 C91.89,196.43 90.25,198.73 87.82,199.13 C85.39,199.54 83.09,197.9 82.68,195.47 C82.28,193.03 83.92,190.73 86.35,190.33 Z" style="stroke-width: 1; stroke: rgb(0, 0, 0); fill: rgb(208, 2, 27); fill-opacity: 1;"/></g><g class="composite-shape"><path class="real" d=" M287.11,184.79 C289.54,184.39 291.84,186.03 292.25,188.46 C292.65,190.89 291.01,193.2 288.58,193.6 C286.15,194.01 283.85,192.37 283.44,189.93 C283.03,187.5 284.68,185.2 287.11,184.79 Z" style="stroke-width: 1; stroke: rgb(0, 0, 0); fill: rgb(208, 2, 27); fill-opacity: 1;"/></g><g class="composite-shape"><path class="real" d=" M270.21,209.3 C272.64,208.89 274.94,210.53 275.35,212.97 C275.76,215.4 274.11,217.7 271.68,218.1 C269.25,218.51 266.95,216.87 266.54,214.44 C266.14,212.01 267.78,209.7 270.21,209.3 Z" style="stroke-width: 1; stroke: rgb(0, 0, 0); fill: rgb(208, 2, 27); fill-opacity: 1;"/></g><g class="composite-shape"><path class="real" d=" M339.68,193.95 C342.11,193.54 344.41,195.18 344.82,197.62 C345.22,200.05 343.58,202.35 341.15,202.75 C338.72,203.16 336.42,201.52 336.01,199.09 C335.61,196.65 337.25,194.35 339.68,193.95 Z" style="stroke-width: 1; stroke: rgb(0, 0, 0); fill: rgb(208, 2, 27); fill-opacity: 1;"/></g><g class="composite-shape"><path class="real" d=" M270.31,239.73 C272.74,239.32 275.04,240.97 275.44,243.4 C275.85,245.83 274.21,248.13 271.78,248.54 C269.34,248.94 267.04,247.3 266.64,244.87 C266.23,242.44 267.87,240.14 270.31,239.73 Z" style="stroke-width: 1; stroke: rgb(0, 0, 0); fill: rgb(208, 2, 27); fill-opacity: 1;"/></g><g class="composite-shape"><path class="real" d=" M350.35,213.33 C352.78,212.92 355.08,214.56 355.49,216.99 C355.89,219.43 354.25,221.73 351.82,222.13 C349.39,222.54 347.09,220.9 346.68,218.47 C346.28,216.03 347.92,213.73 350.35,213.33 Z" style="stroke-width: 1; stroke: rgb(0, 0, 0); fill: rgb(208, 2, 27); fill-opacity: 1;"/></g><g class="composite-shape"><path class="real" d=" M352.35,234.33 C354.78,233.92 357.08,235.56 357.49,237.99 C357.89,240.43 356.25,242.73 353.82,243.13 C351.39,243.54 349.09,241.9 348.68,239.47 C348.28,237.03 349.92,234.73 352.35,234.33 Z" style="stroke-width: 1; stroke: rgb(0, 0, 0); fill: rgb(208, 2, 27); fill-opacity: 1;"/></g><g class="composite-shape"><path class="real" d=" M314.35,181.33 C316.78,180.92 319.08,182.56 319.49,184.99 C319.89,187.43 318.25,189.73 315.82,190.13 C313.39,190.54 311.09,188.9 310.68,186.47 C310.28,184.03 311.92,181.73 314.35,181.33 Z" style="stroke-width: 1; stroke: rgb(0, 0, 0); fill: rgb(208, 2, 27); fill-opacity: 1;"/></g><g class="composite-shape"><path class="real" d=" M485.11,191.79 C487.54,191.39 489.84,193.03 490.25,195.46 C490.65,197.89 489.01,200.2 486.58,200.6 C484.15,201.01 481.85,199.37 481.44,196.93 C481.03,194.5 482.68,192.2 485.11,191.79 Z" style="stroke-width: 1; stroke: rgb(0, 0, 0); fill: rgb(208, 2, 27); fill-opacity: 1;"/></g><g class="composite-shape"><path class="real" d=" M468.21,216.3 C470.64,215.89 472.94,217.53 473.35,219.97 C473.76,222.4 472.11,224.7 469.68,225.1 C467.25,225.51 464.95,223.87 464.54,221.44 C464.14,219.01 465.78,216.7 468.21,216.3 Z" style="stroke-width: 1; stroke: rgb(0, 0, 0); fill: rgb(208, 2, 27); fill-opacity: 1;"/></g><g class="composite-shape"><path class="real" d=" M537.68,200.95 C540.11,200.54 542.41,202.18 542.82,204.62 C543.22,207.05 541.58,209.35 539.15,209.75 C536.72,210.16 534.42,208.52 534.01,206.09 C533.61,203.65 535.25,201.35 537.68,200.95 Z" style="stroke-width: 1; stroke: rgb(0, 0, 0); fill: rgb(208, 2, 27); fill-opacity: 1;"/></g><g class="composite-shape"><path class="real" d=" M468.31,246.73 C470.74,246.32 473.04,247.97 473.44,250.4 C473.85,252.83 472.21,255.13 469.78,255.54 C467.34,255.94 465.04,254.3 464.64,251.87 C464.23,249.44 465.87,247.14 468.31,246.73 Z" style="stroke-width: 1; stroke: rgb(0, 0, 0); fill: rgb(208, 2, 27); fill-opacity: 1;"/></g><g class="composite-shape"><path class="real" d=" M548.35,220.33 C550.78,219.92 553.08,221.56 553.49,223.99 C553.89,226.43 552.25,228.73 549.82,229.13 C547.39,229.54 545.09,227.9 544.68,225.47 C544.28,223.03 545.92,220.73 548.35,220.33 Z" style="stroke-width: 1; stroke: rgb(0, 0, 0); fill: rgb(208, 2, 27); fill-opacity: 1;"/></g><g class="composite-shape"><path class="real" d=" M530.35,244.33 C532.78,243.92 535.08,245.56 535.49,247.99 C535.89,250.43 534.25,252.73 531.82,253.13 C529.39,253.54 527.09,251.9 526.68,249.47 C526.28,247.03 527.92,244.73 530.35,244.33 Z" style="stroke-width: 1; stroke: rgb(0, 0, 0); fill: rgb(208, 2, 27); fill-opacity: 1;"/></g><g class="composite-shape"><path class="real" d=" M513.35,196.33 C515.78,195.92 518.08,197.56 518.49,199.99 C518.89,202.43 517.25,204.73 514.82,205.13 C512.39,205.54 510.09,203.9 509.68,201.47 C509.28,199.03 510.92,196.73 513.35,196.33 Z" style="stroke-width: 1; stroke: rgb(0, 0, 0); fill: rgb(208, 2, 27); fill-opacity: 1;"/></g><g class="composite-shape"><path class="real" d=" M489.35,234.33 C491.78,233.92 494.08,235.56 494.49,237.99 C494.89,240.43 493.25,242.73 490.82,243.13 C488.39,243.54 486.09,241.9 485.68,239.47 C485.28,237.03 486.92,234.73 489.35,234.33 Z" style="stroke-width: 1; stroke: rgb(0, 0, 0); fill: rgb(208, 2, 27); fill-opacity: 1;"/></g><g class="composite-shape"><path class="real" d=" M499.68,214.95 C502.11,214.54 504.41,216.18 504.82,218.62 C505.22,221.05 503.58,223.35 501.15,223.75 C498.72,224.16 496.42,222.52 496.01,220.09 C495.61,217.65 497.25,215.35 499.68,214.95 Z" style="stroke-width: 1; stroke: rgb(0, 0, 0); fill: rgb(208, 2, 27); fill-opacity: 1;"/></g><g class="composite-shape"><path class="real" d=" M519.35,226.33 C521.78,225.92 524.08,227.56 524.49,229.99 C524.89,232.43 523.25,234.73 520.82,235.13 C518.39,235.54 516.09,233.9 515.68,231.47 C515.28,229.03 516.92,226.73 519.35,226.33 Z" style="stroke-width: 1; stroke: rgb(0, 0, 0); fill: rgb(208, 2, 27); fill-opacity: 1;"/></g><g class="composite-shape"><path class="real" d=" M505.35,249.33 C507.78,248.92 510.08,250.56 510.49,252.99 C510.89,255.43 509.25,257.73 506.82,258.13 C504.39,258.54 502.09,256.9 501.68,254.47 C501.28,252.03 502.92,249.73 505.35,249.33 Z" style="stroke-width: 1; stroke: rgb(0, 0, 0); fill: rgb(208, 2, 27); fill-opacity: 1;"/></g><g/></g><g/><g/><g/></svg>
        <svg xmlns="http://www.w3.org/2000/svg" xmlns:xlink="http://www.w3.org/1999/xlink" width="659.9884643554688" height="354.9653015136719" style="width:659.9884643554688px;height:354.9653015136719px;font-family:Asana-Math, Asana;background:transparent;"><g><g><g><g transform="matrix(1,0,0,1,75.15625,159.2569580078125)"><path transform="matrix(0.017,0,0,-0.017,0,0)" d="M386 473C267 473 146 396 119 277C79 98 60 -97 34 -284C62 -283 92 -277 118 -266C116 -222 115 -145 145 29C169 -5 206 -15 247 -15C424 -15 522 168 525 325C527 420 482 473 386 473ZM347 441C426 441 446 380 445 311C444 203 398 11 260 11C182 11 164 72 166 138C168 243 210 441 347 441Z" stroke="rgb(0,0,0)" stroke-opacity="1" stroke-width="8" fill="rgb(0,0,0)" fill-opacity="1"></path></g></g><g><g transform="matrix(1,0,0,1,89.87847900390625,159.2569580078125)"><path transform="matrix(0.017,0,0,-0.017,0,0)" d="M604 347L604 406L65 406L65 347ZM604 134L604 193L65 193L65 134Z" stroke="rgb(0,0,0)" stroke-opacity="1" stroke-width="8" fill="rgb(0,0,0)" fill-opacity="1"></path></g></g><g><g transform="matrix(1,0,0,1,106.3367919921875,159.2569580078125)"><path transform="matrix(0.017,0,0,-0.017,0,0)" d="M418 -3L418 27L366 30C311 33 301 44 301 96L301 700L60 598L67 548L217 614L217 96C217 44 206 33 152 30L96 27L96 -3C250 0 250 0 261 0C292 0 402 -3 418 -3Z" stroke="rgb(0,0,0)" stroke-opacity="1" stroke-width="8" fill="rgb(0,0,0)" fill-opacity="1"></path></g></g></g></g><g><g><g><g transform="matrix(1,0,0,1,283.0208740234375,155.2523193359375)"><path transform="matrix(0.017,0,0,-0.017,0,0)" d="M386 473C267 473 146 396 119 277C79 98 60 -97 34 -284C62 -283 92 -277 118 -266C116 -222 115 -145 145 29C169 -5 206 -15 247 -15C424 -15 522 168 525 325C527 420 482 473 386 473ZM347 441C426 441 446 380 445 311C444 203 398 11 260 11C182 11 164 72 166 138C168 243 210 441 347 441Z" stroke="rgb(0,0,0)" stroke-opacity="1" stroke-width="8" fill="rgb(0,0,0)" fill-opacity="1"></path></g></g><g><g transform="matrix(1,0,0,1,297.74310302734375,155.2523193359375)"><path transform="matrix(0.017,0,0,-0.017,0,0)" d="M604 347L604 406L65 406L65 347ZM604 134L604 193L65 193L65 134Z" stroke="rgb(0,0,0)" stroke-opacity="1" stroke-width="8" fill="rgb(0,0,0)" fill-opacity="1"></path></g></g><g><g transform="matrix(1,0,0,1,314.201416015625,155.2523193359375)"><path transform="matrix(0.017,0,0,-0.017,0,0)" d="M555 243L555 299L51 299L51 243Z" stroke="rgb(0,0,0)" stroke-opacity="1" stroke-width="8" fill="rgb(0,0,0)" fill-opacity="1"></path></g></g><g><g transform="matrix(1,0,0,1,324.49078369140625,155.2523193359375)"><path transform="matrix(0.017,0,0,-0.017,0,0)" d="M418 -3L418 27L366 30C311 33 301 44 301 96L301 700L60 598L67 548L217 614L217 96C217 44 206 33 152 30L96 27L96 -3C250 0 250 0 261 0C292 0 402 -3 418 -3Z" stroke="rgb(0,0,0)" stroke-opacity="1" stroke-width="8" fill="rgb(0,0,0)" fill-opacity="1"></path></g></g></g></g><g><g><g><g transform="matrix(1,0,0,1,483.79632568359375,155.2523193359375)"><path transform="matrix(0.017,0,0,-0.017,0,0)" d="M386 473C267 473 146 396 119 277C79 98 60 -97 34 -284C62 -283 92 -277 118 -266C116 -222 115 -145 145 29C169 -5 206 -15 247 -15C424 -15 522 168 525 325C527 420 482 473 386 473ZM347 441C426 441 446 380 445 311C444 203 398 11 260 11C182 11 164 72 166 138C168 243 210 441 347 441Z" stroke="rgb(0,0,0)" stroke-opacity="1" stroke-width="8" fill="rgb(0,0,0)" fill-opacity="1"></path></g></g><g><g transform="matrix(1,0,0,1,498.5185546875,155.2523193359375)"><path transform="matrix(0.017,0,0,-0.017,0,0)" d="M604 347L604 406L65 406L65 347ZM604 134L604 193L65 193L65 134Z" stroke="rgb(0,0,0)" stroke-opacity="1" stroke-width="8" fill="rgb(0,0,0)" fill-opacity="1"></path></g></g><g><g transform="matrix(1,0,0,1,514.9768676757812,155.2523193359375)"><path transform="matrix(0.017,0,0,-0.017,0,0)" d="M263 689C108 689 29 566 29 324C29 207 50 106 85 57C120 8 176 -20 238 -20C389 -20 465 110 465 366C465 585 400 689 263 689ZM245 654C342 654 381 556 381 316C381 103 343 15 251 15C154 15 113 116 113 360C113 571 150 654 245 654ZM623 111C593 111 566 83 566 53C566 23 593 -5 622 -5C654 -5 682 22 682 53C682 83 654 111 623 111ZM1157 603L795 -1L905 -1L1245 659L1245 689L792 689L792 477L822 477L829 533C837 595 844 603 890 603Z" stroke="rgb(0,0,0)" stroke-opacity="1" stroke-width="8" fill="rgb(0,0,0)" fill-opacity="1"></path></g></g></g></g><g><g><g><g transform="matrix(1,0,0,1,73.651611328125,303.2500305175781)"><path transform="matrix(0.017,0,0,-0.017,0,0)" d="M386 473C267 473 146 396 119 277C79 98 60 -97 34 -284C62 -283 92 -277 118 -266C116 -222 115 -145 145 29C169 -5 206 -15 247 -15C424 -15 522 168 525 325C527 420 482 473 386 473ZM347 441C426 441 446 380 445 311C444 203 398 11 260 11C182 11 164 72 166 138C168 243 210 441 347 441Z" stroke="rgb(0,0,0)" stroke-opacity="1" stroke-width="8" fill="rgb(0,0,0)" fill-opacity="1"></path></g></g><g><g transform="matrix(1,0,0,1,88.37384033203125,303.2500305175781)"><path transform="matrix(0.017,0,0,-0.017,0,0)" d="M604 347L604 406L65 406L65 347ZM604 134L604 193L65 193L65 134Z" stroke="rgb(0,0,0)" stroke-opacity="1" stroke-width="8" fill="rgb(0,0,0)" fill-opacity="1"></path></g></g><g><g transform="matrix(1,0,0,1,104.83221435546875,303.2500305175781)"><path transform="matrix(0.017,0,0,-0.017,0,0)" d="M555 243L555 299L51 299L51 243Z" stroke="rgb(0,0,0)" stroke-opacity="1" stroke-width="8" fill="rgb(0,0,0)" fill-opacity="1"></path></g></g><g><g transform="matrix(1,0,0,1,115.12152099609375,303.2500305175781)"><path transform="matrix(0.017,0,0,-0.017,0,0)" d="M263 689C108 689 29 566 29 324C29 207 50 106 85 57C120 8 176 -20 238 -20C389 -20 465 110 465 366C465 585 400 689 263 689ZM245 654C342 654 381 556 381 316C381 103 343 15 251 15C154 15 113 116 113 360C113 571 150 654 245 654ZM623 111C593 111 566 83 566 53C566 23 593 -5 622 -5C654 -5 682 22 682 53C682 83 654 111 623 111ZM879 331C900 512 989 611 1169 665L1127 689C1031 657 990 637 939 593C836 506 780 384 780 247C780 82 860 -20 989 -20C1119 -20 1216 83 1216 219C1216 334 1147 409 1041 409C964 409 932 370 879 331ZM1003 349C1079 349 1130 283 1130 184C1130 80 1079 13 1002 13C917 13 871 86 871 220C871 255 875 274 886 291C908 325 955 349 1003 349Z" stroke="rgb(0,0,0)" stroke-opacity="1" stroke-width="8" fill="rgb(0,0,0)" fill-opacity="1"></path></g></g></g></g><g><g><g><g transform="matrix(1,0,0,1,302.1585693359375,303.2500305175781)"><path transform="matrix(0.017,0,0,-0.017,0,0)" d="M386 473C267 473 146 396 119 277C79 98 60 -97 34 -284C62 -283 92 -277 118 -266C116 -222 115 -145 145 29C169 -5 206 -15 247 -15C424 -15 522 168 525 325C527 420 482 473 386 473ZM347 441C426 441 446 380 445 311C444 203 398 11 260 11C182 11 164 72 166 138C168 243 210 441 347 441Z" stroke="rgb(0,0,0)" stroke-opacity="1" stroke-width="8" fill="rgb(0,0,0)" fill-opacity="1"></path></g></g><g><g transform="matrix(1,0,0,1,316.88079833984375,303.2500305175781)"><path transform="matrix(0.017,0,0,-0.017,0,0)" d="M604 347L604 406L65 406L65 347ZM604 134L604 193L65 193L65 134Z" stroke="rgb(0,0,0)" stroke-opacity="1" stroke-width="8" fill="rgb(0,0,0)" fill-opacity="1"></path></g></g><g><g transform="matrix(1,0,0,1,333.339111328125,303.2500305175781)"><path transform="matrix(0.017,0,0,-0.017,0,0)" d="M263 689C108 689 29 566 29 324C29 207 50 106 85 57C120 8 176 -20 238 -20C389 -20 465 110 465 366C465 585 400 689 263 689ZM245 654C342 654 381 556 381 316C381 103 343 15 251 15C154 15 113 116 113 360C113 571 150 654 245 654Z" stroke="rgb(0,0,0)" stroke-opacity="1" stroke-width="8" fill="rgb(0,0,0)" fill-opacity="1"></path></g></g></g></g><g><g><g><g transform="matrix(1,0,0,1,495.15625,303.2500305175781)"><path transform="matrix(0.017,0,0,-0.017,0,0)" d="M386 473C267 473 146 396 119 277C79 98 60 -97 34 -284C62 -283 92 -277 118 -266C116 -222 115 -145 145 29C169 -5 206 -15 247 -15C424 -15 522 168 525 325C527 420 482 473 386 473ZM347 441C426 441 446 380 445 311C444 203 398 11 260 11C182 11 164 72 166 138C168 243 210 441 347 441Z" stroke="rgb(0,0,0)" stroke-opacity="1" stroke-width="8" fill="rgb(0,0,0)" fill-opacity="1"></path></g></g><g><g transform="matrix(1,0,0,1,509.87847900390625,303.2500305175781)"><path transform="matrix(0.017,0,0,-0.017,0,0)" d="M604 347L604 406L65 406L65 347ZM604 134L604 193L65 193L65 134Z" stroke="rgb(0,0,0)" stroke-opacity="1" stroke-width="8" fill="rgb(0,0,0)" fill-opacity="1"></path></g></g><g><g transform="matrix(1,0,0,1,526.3368530273438,303.2500305175781)"><path transform="matrix(0.017,0,0,-0.017,0,0)" d="M263 689C108 689 29 566 29 324C29 207 50 106 85 57C120 8 176 -20 238 -20C389 -20 465 110 465 366C465 585 400 689 263 689ZM245 654C342 654 381 556 381 316C381 103 343 15 251 15C154 15 113 116 113 360C113 571 150 654 245 654Z" stroke="rgb(0,0,0)" stroke-opacity="1" stroke-width="8" fill="rgb(0,0,0)" fill-opacity="1"></path></g></g></g></g></svg>
</svg>
